<?xml version="1.0" encoding="utf-8"?>
<!-- Generator: Adobe Illustrator 16.0.0, SVG Export Plug-In . SVG Version: 6.00 Build 0)  -->
<svg version="1.2" baseProfile="tiny" id="Layer_1" xmlns="http://www.w3.org/2000/svg" xmlns:xlink="http://www.w3.org/1999/xlink"
	 x="0px" y="0px" width="135px" height="135px" viewBox="0.458 -3.3 135 135" xml:space="preserve">
<path fill-rule="evenodd" fill="#020202" d="M71.171,87.316c-3.313,0-6.616,0-9.939,0c0-8.602,0-17.193,0-25.816
	c-0.773-0.008-1.525-0.004-2.274-0.004c-0.754,0-1.51,0-2.262,0c-0.757,0-1.51,0-2.257,0c-0.054-0.166-0.076-8.94-0.031-9.4
	c0.006-0.004,0.012-0.009,0.012-0.009c0.009-0.008,0.014-0.016,0.022-0.02c0.006,0,0.014-0.004,0.02-0.004
	c0.022,0,0.043-0.004,0.064-0.004c2.216-0.002,4.424-0.002,6.642-0.005c0.009,0,0.013-0.005,0.052-0.009
	c0.003-0.076,0.007-0.159,0.007-0.245c0-2.319-0.007-4.638,0.002-6.96c0.002-0.684,0-1.368,0.074-2.045
	c0.511-4.553,2.8-7.801,7.08-9.568c1.188-0.489,2.432-0.766,3.708-0.929c1.336-0.174,2.679-0.186,4.023-0.137
	c1.01,0.042,2.022,0.086,3.035,0.15c0.634,0.036,1.272,0.113,1.909,0.17c0.055,0.006,0.113,0.024,0.191,0.043
	c-0.075,2.922-0.146,5.839-0.221,8.791c-0.108,0-0.196,0-0.286,0c-1.899-0.005-3.797-0.018-5.692-0.021
	c-0.525-0.001-1.05,0.026-1.564,0.143c-0.085,0.02-0.167,0.039-0.249,0.063c-1.053,0.29-1.667,0.988-1.888,2.048
	c-0.117,0.551-0.149,1.115-0.152,1.671c-0.005,2.208,0,4.413,0,6.62c0,0.062,0.005,0.128,0.011,0.216c3.361,0,6.713,0,10.094,0
	c-0.153,3.161-0.299,6.292-0.448,9.435c-3.223,0-6.421,0-9.601,0c-0.021,0.018-0.028,0.02-0.032,0.03
	c-0.004,0.002-0.009,0.008-0.013,0.017c-0.002,0.005-0.006,0.014-0.006,0.021c-0.001,0.007-0.002,0.012-0.002,0.019
	c-0.003,0.014-0.003,0.031-0.003,0.046c0,0.008,0,0.013,0,0.02c0,0.005,0,0.015,0,0.022c0,0.02,0,0.039,0,0.063
	c0,8.48,0,16.958,0,25.438c0,0.011-0.001,0.017-0.001,0.028c0,0.014-0.004,0.027-0.004,0.039c0,0.007,0,0.015,0,0.022
	c-0.003,0.009-0.004,0.016-0.008,0.021C71.183,87.284,71.179,87.289,71.171,87.316z"/>
<rect x="0.342" y="-3.3" fill="none" stroke="#FFFFFF" stroke-miterlimit="10" width="135.001" height="135"/>
</svg>
