<?xml version="1.0" encoding="utf-8"?>
<!-- Generator: Adobe Illustrator 16.0.0, SVG Export Plug-In . SVG Version: 6.00 Build 0)  -->
<!DOCTYPE svg PUBLIC "-//W3C//DTD SVG 1.1//EN" "http://www.w3.org/Graphics/SVG/1.1/DTD/svg11.dtd">
<svg version="1.1" id="Layer_1" xmlns="http://www.w3.org/2000/svg" xmlns:xlink="http://www.w3.org/1999/xlink" x="0px" y="0px"
	 width="152.601px" height="28.189px" viewBox="0 0 152.601 28.189" enable-background="new 0 0 152.601 28.189"
	 xml:space="preserve">
<g>
	<g>
		<g>
			<g>
				<path d="M41.762,6.968v0.768H36.77v4.841h4.49v0.784h-4.49v5.676h5.325v0.818h-6.159V6.968H41.762z"/>
				<path d="M49.389,9.704c-0.018-1.567-1.019-2.152-2.504-2.152c-1.736,0-2.705,0.551-2.705,2.654c0,2.336,1.386,2.303,3.355,2.537
					c1.887,0.25,2.972,1.484,2.972,3.371c0,3.172-1.519,3.873-3.756,3.873c-2.271-0.016-3.423-0.984-3.423-3.055h0.802
					c0,1.586,0.901,2.254,2.638,2.254c2.137-0.018,2.888-0.869,2.888-3.088c0-2.287-1.603-2.572-3.522-2.756
					c-1.335-0.133-2.771-0.717-2.771-3.137c0-2.421,1.202-3.389,3.538-3.406c1.804,0,3.189,0.617,3.289,2.904H49.389z"/>
				<path d="M57.6,7.751h-2.688v12.104h-0.834V7.751H51.39V6.968h6.21V7.751z"/>
				<path d="M65.678,6.968v8.713c0,2.855-0.535,4.207-3.473,4.207s-3.472-1.352-3.472-4.207V6.968h0.852v8.713
					c0,2.188,0.184,3.456,2.62,3.456c2.438,0,2.621-1.269,2.621-3.456V6.968H65.678z"/>
				<path d="M67.963,6.968h3.154c3.139,0,3.707,1.334,3.707,4.373v4.256c0,2.939-0.685,4.258-3.74,4.258h-3.121V6.968z
					 M68.797,7.718v11.318h2.287c2.822,0,2.904-1.219,2.904-3.439v-4.289c0-2.238-0.082-3.59-2.904-3.59H68.797z"/>
				<path d="M77.76,19.854h-0.885V6.968h0.885V19.854z"/>
				<path d="M79.912,15.731v-4.658c0-2.955,0.635-4.24,3.74-4.24c3.104,0,3.738,1.285,3.738,4.258v4.623
					c0,2.904-0.684,4.258-3.738,4.258C80.596,19.972,79.912,18.618,79.912,15.731z M80.746,11.124v4.557
					c0,2.07,0.084,3.521,2.906,3.521c2.82,0,2.904-1.402,2.904-3.521v-4.557c0-2.188-0.084-3.523-2.904-3.523
					C80.83,7.601,80.746,8.887,80.746,11.124z"/>
				<path d="M94.666,15.331v4.523h-0.885V6.968h3.105c2.104,0,3.088,0.666,3.088,3.605v1.117c0,2.805-0.984,3.641-3.088,3.641
					H94.666z M96.887,14.528c1.803,0,2.254-0.767,2.254-2.82v-1.053c0-2.053-0.334-2.887-2.254-2.887h-2.221v6.76H96.887z"/>
				<path d="M106.984,6.968l-2.904,7.395v5.508h-0.902v-5.508l-2.854-7.395h0.968l1.186,3.121l1.152,3.322l1.168-3.322l1.219-3.121
					H106.984z"/>
				<path d="M113.926,6.968v0.768h-4.99v4.841h4.49v0.784h-4.49v5.676h5.324v0.818h-6.158V6.968H113.926z"/>
				<path d="M120,17.333c0-4.373,5.859-2.771,5.859-6.793c0-2.121-1-2.889-2.553-2.889c-1.82,0-2.588,1.018-2.588,2.621h-0.834
					c0-2.57,1.551-3.422,3.471-3.422c1.586,0,3.34,0.701,3.34,3.689c0,4.723-5.826,3.121-5.826,6.709v1.754h5.926v0.852H120V17.333z
					"/>
				<path d="M128.363,16.698V9.989c0-2.121,0.984-3.139,3.087-3.139c2.104,0,3.089,0.967,3.089,3.139v6.76
					c0,2.221-0.984,3.188-3.089,3.188C129.348,19.937,128.363,18.868,128.363,16.698z M133.738,16.698v-6.693
					c0-1.502-0.367-2.371-2.288-2.371c-1.802,0-2.286,0.785-2.286,2.338v6.777c0,1.453,0.367,2.438,2.286,2.438
					C133.254,19.187,133.738,18.302,133.738,16.698z"/>
				<path d="M136.174,6.968h3.037v12.119h2.455v0.768h-5.928v-0.768h2.639V7.785h-2.203V6.968z"/>
				<path d="M147.707,7.017c-1.436,0.918-2.637,2.621-3.257,3.789c0.485-0.316,1.271-0.416,1.888-0.416
					c1.703,0,2.688,0.984,2.688,3.672v2.254c0,2.703-0.984,3.656-3.088,3.656s-3.088-0.818-3.088-3.656v-2.304
					c0-2.604,1.267-4.841,3.738-7.061h1.102L147.707,7.017z M148.191,16.282v-2.221c0-2.037-0.318-2.904-2.07-2.955
					c-1.785,0-2.438,0.902-2.438,2.922v2.221c0,2.104,0.334,2.953,2.254,2.953C147.74,19.202,148.191,18.335,148.191,16.282z"/>
			</g>
		</g>
		<g>
			<g>
				<path d="M26.384,13.433c0,3.074-1.074,5.693-3.235,7.855c-2.165,2.156-4.776,3.234-7.842,3.234c-3.063,0-5.683-1.08-7.859-3.246
					c-2.172-2.168-3.262-4.781-3.262-7.844c0-3.076,1.09-5.711,3.262-7.893c2.177-2.184,4.797-3.275,7.859-3.275
					c3.065,0,5.677,1.092,7.842,3.275C25.31,7.722,26.384,10.356,26.384,13.433z M24.681,13.394c0-2.613-0.914-4.842-2.742-6.689
					c-1.828-1.842-4.042-2.76-6.632-2.76c-2.604,0-4.828,0.918-6.66,2.76c-1.835,1.848-2.75,4.076-2.75,6.689
					c0,2.618,0.915,4.848,2.75,6.697c1.832,1.85,4.057,2.773,6.66,2.773c2.59,0,4.804-0.924,6.632-2.773
					S24.681,16.012,24.681,13.394z M20.686,18.997h-2.693c-0.701-2.154-1.237-3.484-1.614-3.99c-0.377-0.504-0.98-0.756-1.816-0.756
					c-0.351,0-0.687,0.006-0.999,0.023c0,1.553,0.02,3.127,0.075,4.723H11.11c0.086-1.838,0.122-3.906,0.122-6.205
					c0-2.213-0.036-4.105-0.122-5.678h1.579c0.18,0,0.559-0.004,1.139-0.025c0.572-0.02,1.106-0.029,1.604-0.029
					c2.775,0,4.165,0.959,4.165,2.867c0,1.524-0.792,2.578-2.383,3.17v0.137c0.606,0.168,1.146,0.646,1.612,1.438
					C19.286,15.46,19.909,16.901,20.686,18.997z M17.288,10.601c0-1.203-0.775-1.799-2.324-1.799c-0.575,0-1.074,0.037-1.509,0.123
					c0.059,0.951,0.086,2.176,0.086,3.686c0.33,0.01,0.614,0.02,0.855,0.02C16.328,12.63,17.288,11.954,17.288,10.601z"/>
			</g>
		</g>
	</g>
</g>
</svg>
