<?xml version="1.0" encoding="utf-8"?>
<!-- Generator: Adobe Illustrator 16.0.0, SVG Export Plug-In . SVG Version: 6.00 Build 0)  -->
<!DOCTYPE svg [
	<!ENTITY ns_extend "http://ns.adobe.com/Extensibility/1.0/">
	<!ENTITY ns_ai "http://ns.adobe.com/AdobeIllustrator/10.0/">
	<!ENTITY ns_graphs "http://ns.adobe.com/Graphs/1.0/">
	<!ENTITY ns_vars "http://ns.adobe.com/Variables/1.0/">
	<!ENTITY ns_imrep "http://ns.adobe.com/ImageReplacement/1.0/">
	<!ENTITY ns_sfw "http://ns.adobe.com/SaveForWeb/1.0/">
	<!ENTITY ns_custom "http://ns.adobe.com/GenericCustomNamespace/1.0/">
	<!ENTITY ns_adobe_xpath "http://ns.adobe.com/XPath/1.0/">
]>
<svg version="1.2" baseProfile="tiny" id="Layer_1" xmlns:x="&ns_extend;" xmlns:i="&ns_ai;" xmlns:graph="&ns_graphs;"
	 xmlns="http://www.w3.org/2000/svg" xmlns:xlink="http://www.w3.org/1999/xlink" x="0px" y="0px" width="135.917px"
	 height="128.4px" viewBox="0 0 135.917 128.4" xml:space="preserve">
<metadata><?xpacket begin="﻿" id="W5M0MpCehiHzreSzNTczkc9d"?>
<x:xmpmeta xmlns:x="adobe:ns:meta/" x:xmptk="Adobe XMP Core 5.3-c011 66.145661, 2012/02/06-14:56:27        ">
   <rdf:RDF xmlns:rdf="http://www.w3.org/1999/02/22-rdf-syntax-ns#">
      <rdf:Description rdf:about=""
            xmlns:xmp="http://ns.adobe.com/xap/1.0/"
            xmlns:xmpGImg="http://ns.adobe.com/xap/1.0/g/img/">
         <xmp:CreatorTool>Adobe Illustrator CS6 (Windows)</xmp:CreatorTool>
         <xmp:CreateDate>2016-02-20T20:14:30-03:00</xmp:CreateDate>
         <xmp:MetadataDate>2016-02-20T20:14:30-03:00</xmp:MetadataDate>
         <xmp:ModifyDate>2016-02-20T20:14:30-03:00</xmp:ModifyDate>
         <xmp:Thumbnails>
            <rdf:Alt>
               <rdf:li rdf:parseType="Resource">
                  <xmpGImg:width>192</xmpGImg:width>
                  <xmpGImg:height>256</xmpGImg:height>
                  <xmpGImg:format>JPEG</xmpGImg:format>
                  <xmpGImg:image>/9j/4AAQSkZJRgABAgEASABIAAD/7QAsUGhvdG9zaG9wIDMuMAA4QklNA+0AAAAAABAASAAAAAEA&#xA;AQBIAAAAAQAB/+4ADkFkb2JlAGTAAAAAAf/bAIQABgQEBAUEBgUFBgkGBQYJCwgGBggLDAoKCwoK&#xA;DBAMDAwMDAwQDA4PEA8ODBMTFBQTExwbGxscHx8fHx8fHx8fHwEHBwcNDA0YEBAYGhURFRofHx8f&#xA;Hx8fHx8fHx8fHx8fHx8fHx8fHx8fHx8fHx8fHx8fHx8fHx8fHx8fHx8fHx8f/8AAEQgBAADAAwER&#xA;AAIRAQMRAf/EAaIAAAAHAQEBAQEAAAAAAAAAAAQFAwIGAQAHCAkKCwEAAgIDAQEBAQEAAAAAAAAA&#xA;AQACAwQFBgcICQoLEAACAQMDAgQCBgcDBAIGAnMBAgMRBAAFIRIxQVEGE2EicYEUMpGhBxWxQiPB&#xA;UtHhMxZi8CRygvElQzRTkqKyY3PCNUQnk6OzNhdUZHTD0uIIJoMJChgZhJRFRqS0VtNVKBry4/PE&#xA;1OT0ZXWFlaW1xdXl9WZ2hpamtsbW5vY3R1dnd4eXp7fH1+f3OEhYaHiImKi4yNjo+Ck5SVlpeYmZ&#xA;qbnJ2en5KjpKWmp6ipqqusra6voRAAICAQIDBQUEBQYECAMDbQEAAhEDBCESMUEFURNhIgZxgZEy&#xA;obHwFMHR4SNCFVJicvEzJDRDghaSUyWiY7LCB3PSNeJEgxdUkwgJChgZJjZFGidkdFU38qOzwygp&#xA;0+PzhJSktMTU5PRldYWVpbXF1eX1RlZmdoaWprbG1ub2R1dnd4eXp7fH1+f3OEhYaHiImKi4yNjo&#xA;+DlJWWl5iZmpucnZ6fkqOkpaanqKmqq6ytrq+v/aAAwDAQACEQMRAD8A9U4q7FXYq7FXYq7FXYq7&#xA;FXYq7FXYq7FXYq7FXYq7FXYqg9Y1jS9G0u51XVbmOz06zjMtzcymiIg7n9QA3J2GKvEZPLmvfn0Z&#xA;dR1mW78v/ltGrjy/p8REd1fykFVv7gMGAjXrGh6/LdlWI+R/yf8Ayr0nzL/yr/8AMny4i+YpCz6D&#xA;r6Xd9Da6tBXbiqzqkc61o0Y/pyVep/8AQrn5E/8AUs/9P2of9lGKsT1j8qvIXkT83vy0m8qaX+jZ&#xA;L+81BLthcXM3NY7M8R+/klp9s9MVfQOKuxV2KuxV2KuxV2KuxV2KuxV2KuxV2KuxV2KuxV2KuxVB&#xA;6xrGl6Npdzquq3Mdnp1nGZbm5lNERB3P6gBuTsMVeOaVpWr/AJ1avB5g8wQS2H5Y2Evq6DoMtUk1&#xA;SRD8N5eL/vn+RO/yqWVe2EwW8IrxhgiUAdFRVGw8ABirHPPXkby3598uPpepjnGT6tjfwMBNbTr9&#xA;ieCQfZZT9B6HFWH+QfP2v6Hr8f5c/mNIBr4B/wAP+YKcbfV7ddhufs3K9HQ9fnQsq3+aX/k2Pyo/&#xA;5jtT/wCoMYq9VxV2KuxV2KuxV2KuxV2KuxV2KuxV2KuxV2KuxV2KuxVB6xrGl6Npdzquq3Mdnp1n&#xA;GZbm5lNERB3P6gBuTsMVeOaVpWr/AJ1avB5g8wQS2H5Y2Evq6DoMtUk1SRD8N5eL/vn+RO/yqWVe&#xA;3IiRoqIoREAVVUUAA2AAGKvB9e8vQfmj+emueVfM91MfKvlCzs5YNChmeFLya7iWVppeBViE9TjV&#xA;TUbUIqaqqdp5XtPyo/Ozyro/lK5mi8tec472PUPL8szzRwyWkQkSeIyF3FSw+1U7MK0Oyr1nz95B&#xA;0DzxoEmj6xGQARLZXsR43FrcL9iaF/2WX8eh2xV4YNY89xfnL+XXkvzpF9a1XQ7q+ltNfj/u9Rsp&#xA;bRljmZeqyr6REn+ZKr6XxV2KuxV2KuxV2KuxV2KuxV2KuxV2KuxV2KuxV2KoTVtW03SNMutU1O4S&#xA;00+zjaa5uJDRURBUk/0GKvG9K0rV/wA6tXg8weYIJbD8sbCX1dB0GWqSapIh+G8vF/3z/Inf5VLK&#xA;vXde1zSPLWgXmsalItrpemQNNOwGyxxjZVUdSfsqo6nbFXj4/P78wpNL/wAVQflpev5HA9X9IG7i&#xA;F4bUb/WBacS/Hj8X8tP26b4qm2s+QdG/Ms6N+ZfkjzFdeW9cmtgkGr20YlEtvU1hubcsgZo2qp+L&#xA;tQ8qCiqZeRPyafQ/M8nm/wAz+YLnzb5r9I21rqF1GsEVtC1eSwQK0gQsGIJDdzQCpqqmn5o/mjpf&#xA;kXS4f3Lal5h1JvQ0LQoKtPdTsQo2UEhASOTU9hUkDFUm/Kz8sdXsdTn89+epxqPn7VE4tQ1g063b&#xA;paWwqQKDZmHyBPxMyr0/FXYq7FXYq7FXYq7FXYq7FXYq7FXYq7FXYq7FXYqxb8zNW8jaf5N1Eedr&#xA;iOHQLuJre5jkYh5Q4/u4lT42f+Xjv3xV5F+Un5h+ZvJdlYaT54sb6x8i6lO9t5O1/VQi3FvED+4t&#xA;tRCk+krp/ds9KU/k3VV6b+d3lLVPN35V6/oGkgNqN1DHJaxkgeo9tPHcemCdgZPS4iu1Tvirz20/&#xA;5yh8pWnlWLSp9G1BfOtvbrZnyobOTmbtE4emNqelyH+tx/ZrtirOfyD8nav5Q/KvRtF1hBFqSiW4&#xA;uYAa+kbiVpRGSP2lVgG964qjPzR/NHS/Iulw/uW1LzDqTehoWhQVae6nYhRsoJCAkcmp7CpIGKpJ&#xA;+V35XapZ6pN588+TLqXn7Ul9mg02BgaWtqKkCgNGYe4BNWZlXqOKuxV2KuxV2KuxV2KuxV2KuxV2&#xA;KuxV2KuxV2KuxV2Kvnz82Jrby5+cVj571NIPM+gaVbRQ6lo6yCa70QyMPT1BbTkRxY0o5Xr4Hi2K&#xA;pr568w2/5uana/lz5Su1ufLs8cGo+b9dgoyRWZZZYLWFiD+/mKgnb4e9fjAVSryV+Zn/ACrDzq/5&#xA;V+b9Zi1PRogg0HXzIrSWkchpFZ6jQ/u6bBWb7Ip+wRwVfQXBCweg5AUDU3od6VxVhX5o/mjpfkXS&#xA;4f3Lal5h1JvQ0LQoKtPdTsQo2UEhASOTU9hUkDFUk/K78rtUs9Um8+efJl1Lz9qS+zQabAwNLW1F&#xA;SBQGjMPcAmrMyr1HFXYq7FXYq7FXYq7FXYq7FXYq7FXYq7FXYq7FXYq7FUn843tzY+U9YvLW/t9L&#xA;uoLOZ7fUbz/eeCUIeEsuzfCrUJ2PyPTFXiX/ADjHpep3r+YNYubGO+0DWFZLjzLqKOb/AFa550kK&#xA;xyEotmAXUKVqT1J3VFU4/OCxk/LXyDHF5Asf8PaNfX8Y8zatpkIluLS0deDzxqWVuXQBq/D2oTXF&#xA;UZdaf+S3kj8mLy7gtodY8uaxAvOR29a61i4lr6StLTm0zSVIpT0zUgLxxVinlDzh+cX5YeWLbQ/M&#xA;3lm98yR3Nmsvlp7APcSW0rUA06+ahZVi5Cjb0HwjkPsKs7/K78rtUs9Um8+efJl1Lz9qS+zQabAw&#xA;NLW1FSBQGjMPcAmrMyr1HFXYq7FXYq7FXYq7FXYq7FXYq7FXYq7FXYq7FXYq7FXYqlvmPy3onmTR&#xA;rjRdctVvdLuuH1i1csqv6UiypUoVbZ0B64qxL8zvPyeQdC07TdA0k6hr+qt+j/LOi28fGIvGoFW4&#xA;8QkUSkEgU+gVYKvM/INp+euteaz5f1rUrhdD0m+N15r1G9hUxXskirz0yzSRAGteFV+H4dy+1UXF&#xA;WY+W/wDnHTy1oXnaPW4r+4uNAsZXvdE8rzVa0sr2agedCWIagX4Bxqp3qaDFXrWKuxV2KuxV2Kux&#xA;V2KuxV2KuxV2KuxV2KuxV2KuxV2KuxV2KuxV2KuxV2KuxV2KuxV2KuxV2KuxV2KuxV2KuxV2KuxV&#xA;2KuxV2KuxV2KuxV2KuxV2KuxV2KuxV2KuxV2KuxV2KuxV2KuxV2KuxV2KuxV2KuxV2KuxV2KuxV2&#xA;KuxV2KuxV2KuxV2KuxV2KuxV2KuxV2KuxV2KuxV2KuxV2KuxV2KuxV2KuxV2KuxV2KuxV2KuxV2K&#xA;uxV2KuxV2KuxV2KuxV2KuxV2KuxV2KuxV2KuxV2KuxV2KuxV2KuxV2KuxV2KuxV2KuxV2KuxV2Ku&#xA;xV2KuxV2KuxV2KuxV2KuxV2KuxV2KuxV2KuxV2KuxV2KuxV2KuxV2KuxV2KuxV2KuxV2KuxV2Kux&#xA;V2KuxV2KuxV2KuxV2KuxV2KuxV2KuxV2KuxV2KuxV2KuxV2KuxV2KuxV2KuxV2KuxV2KuxV2KuxV&#xA;2KuxV2KuxV2KuxV2KuxV2KuxV2KuxV2KuxV2KuxV2KuxV2KuxV2KuxV2KuxV2KuxV2KuxV2KuxV2&#xA;KuxV2KuxV2KuxV2KuxV2KuxV2KuxV2KuxV2KuxV2KuxV2KuxV2KuxV2KuxV2KuxV2KuxV2KuxV2K&#xA;uxV2KuxV2KuxV2KuxV2KuxV2KuxV2KuxV2KuxV2KuxV2KuxV2KuxV2KsL8yfm/5G8tecbDynrd29&#xA;lqWpRJNbTSxsLakjvGgab7K1aMjfbpU4q85/M3/nJO40q6urbyNa2+q3Xl66mi81WN9FPHOkMLhD&#xA;LbcWj5IrKyyPRuNVJXjvir1L8vvzG8t+evK0XmLR5qWxql3DKQsltMoBeKXsCvIGvQihGKsnR0kQ&#xA;PGwdGFVZTUEeIIxVvFXYqw+b8ztCi/NC3/Lxkc6rcWDX6zgr6QIJpBT7XMxoz+FMVZhirsVdirsV&#xA;dirsVdirsVdirsVdirsVdirsVdirsVdir58/5y7utBTQ9Htdc8vT3VpdSSLD5otnVZNOmHGi+mUb&#xA;1hItSY2dA3HY8hVVXnPlP8mPPPmTy+3mefU7TR9S0H0X0Xzg06vbahp4Rw5nZOTUt41ADyqDxJik&#xA;X4fgVYn+YHnax1S01Pyr+Wumiy8mWbfpDX3tC0cmoyIUjkuDHIzulsjUKRKOKj42A6Kqyf8AI788&#xA;Z/y+nttG1m5k1H8vdRkIsL8gmWwlJq6sg5FeJb97Fv15pUH41X2Ta3Vtd20V1aypPbToskE8bB0d&#xA;HFVZWFQQQagjFXiP5k/nz5+8j+bG0q88n240m6m9PSNbnvjDazJQU9SYxmOJ61qrkcfl8RVYu/5f&#xA;/mrdeYW/OL9CQr5qXWLe5g0FdRtSh0WOzMEirehvQHNWG/hVqdAVWSfl9+fv5g+c/NyaJY+TbZ7C&#xA;2nSPWdXt7/17W3j/AN2FZ0j9KRwDVVRjy7bfEFXu+KuxV2KuxV2KuxV2KuxV2KuxV2KuxV2KuxV2&#xA;KuxV8X3Kaz+Yf5oa9rVhpy6Bf24SLzv5d1q5D2rWEPCGWUyskNFQRgstAyMFkjYn7CrGfPfnrTJd&#xA;G/wN5GN9Zflbp96o1HU2V55bmadyweSpiUR0iZooSV5ceTb/AGVUm0nTriG907SbeSHTPNUFJfK2&#xA;vW5WO01KKZ24RSyOFSrsWRJJAN6wzAU+BV9Dr+Vv5YeTvyj1bVvzD04aRca9DC+radbzLIIb6ISG&#xA;FNNQEhZSZGYKGZVqRX0w2KvOP+cbvzo17ytr+leTdXSa68s6/OkOjLJQy20txN6Ubx1pWF5NnXoD&#xA;Vl/aDKvof/nIjzLp2gflFr095DFcPeRCxs7edFkVri4PFG4uCpMQrKK/y4q8d06f84x+TaWsHliv&#xA;5fjSm0yXTuT/AKaljljPq6nGn8vqMWWH+XahX48Veq/84x+ZNN1v8n9IWzhitp9L5affwwoqL68N&#xA;D6hC9WljZHZu7E4q9VxV2KuxV2KuxV2KuxV2KuxV2KuxV2KuxV2KuxV2Kvk//nLzzF5hTzLY+VYR&#xA;HpOg6rbRz3ep8DGL2aNnCwzzqCWjh+H4OiluTdqKvHdEhvIzIND0w/puxtjB5l8svzmg1GyTjynR&#xA;KlmPR5FVqqaTREAH01Xv/kfyP+V/kr8sIvO3nMz3GkPNHqmhaTqcQF1YzsCRbW9GUzyTFQa0VWCq&#xA;7KoBIVeGfmZ+aeree9eHmLzInHT4Qw8u+W1c+ikZP25SOJIYrWR9mkI4rxUfCq+gP+cZfyh0ldOt&#xA;vzJ1q6h1nX9TT1LAxlXhskpw4qF+ETKBwIAAjA4KBir3jV9C0XWYoIdWsYL+K2mS6t47iNZVSeOv&#xA;CRQwIDLyNDiqOxVA6XoejaT9a/RljBZfXp2u7z0I1j9WeQAPK/ECrNxFTiqOxV2KuxV2KuxV2Kux&#xA;V2KuxV2KuxV2KuxV2KuxV2Ksc8/eQfLnnry5PoOvQerby/FBOtBLBKAQssTEHiy1+RGxqDir5j8q&#xA;6tcfkB5+l03z5pK6npkkEi6F5mtoVa6EA39OJmIqrbK8TNWMnY8Tuq8+/Mj8xdf/ADD12HXteic2&#xA;rsYvKnlaIs4IduIdgoDMGYDm9OUrDglFHwKsp/JXR/KOifmNqHlz839GaHX9UgWDTX1Hj9VUXClS&#xA;lB8KNIpCxyK1FpxHE4qyu7tPN3/ON/m431iJtY/K3WJgJ4CeT27t0BOyrMqj4W2WVRQ0I+FV9NeX&#xA;PMei+ZNFtda0W6S8028TnBOn3FWB3VlOzKdwdjiqZYq7FXYq7FXYq7FXYq7FXYq7FXYq7FXYq7FX&#xA;Yq7FXYq7FXYq8a8+a75N8+/mPd/kvr2niSL9Hi9t9USSk8GoBfVVYlpsVt351rv9kqQcVUvya/5x&#xA;o0XyFq0uu6rerr2toeGmztEY47aIDiGVGZ/3pXblX4RsPEqsr/OH8nvL/wCZXl82d4Ba6xahm0rV&#xA;VWrwuf2H/mib9pfpG+KvJ/y2/Mm80+8ufyX/ADotlaVlFpYX92eUNzC20cckhpyDU/czda7GjDFU&#xA;qu7Tzd/zjf5uN9YibWPyt1iYCeAnk9u7dATsqzKo+FtllUUNCPhVfTXlzzHovmTRbXWtFukvNNvE&#xA;5wTp9xVgd1ZTsyncHY4qmWKuxV2KuxV2KuxV2KuxVZcXEFvBJcXEixQQq0ksrkKqooqzMTsAAN8V&#xA;SePzt5RfQLXzCNXtRol60aWuoNKqwu8r+mihmI+LnsQdxvXocVSryv8AmNa6r5m1Tyrqlk+i+Y9O&#xA;d3hsJ3Di7suREV3bSABZEZftAbodjirMMVdirsVY/wDmB5pTyp5J1vzEwVn0yzlnhR/svMFpChpT&#xA;Z5Cq4qmOgaxa63oWnaza/wC82pW0N3DvX4JkEiivybFUfirxn88dN/PWzuD5k8g+YCulW0IN7ogg&#xA;tmljEYJkmi9dGWaq7lGIPhXsq85fynYRfl8v50L51u/8TrcHWDrn6KtzdGOVRp31b6h63pAer8PP&#xA;nwp2pvir0r8jtM/PO5kPmL8wdf8AU067hJstDMNssjepRkmlMCKsXw9EUk7/ABUpQqvYsVYB+cP5&#xA;PeX/AMyvL5s7wC11i1DNpWqqtXhc/sP/ADRN+0v0jfFXz9N+d3m7yX5U1v8ALD8xtAOua3DCLTSZ&#xA;Lj95DPDIeKGdqh5UUfFG6fE1OJKsOQVSXyB5h/MD8ivM2jadq4S6sPM0cc+oeWYpPUurcyv6cbmI&#xA;D91cUoQvRx8J3HwqvtrFXYq7FXYq7FXYq7FXYq4gEUO4PUYq8C8seWdH1nX9WtPKMKS+R9WuprLz&#xA;15G1Rfq0um3IDcL21iPIx+oUBVV9qUp+7VTjWNQ0L8nvK1gfMF6vmrzFaSz2vklbiONNQEM/FEt/&#xA;XJY8EFBJNt8O1OgxVgegXP5p2fmzVtcnvZ3/ADRs3M2r+SbllWx1HRBvEullOQJhq3FgSeRNdy3N&#xA;V9AeRfPWgeddAi1nRpS0bEx3VrIOM9tOv24J06q6n7+o2xVL/wAxvN/nHytYLqWi+VT5msYwWvUt&#xA;7sw3cQHVkt/Ql9Vafyvy9qb4q8ruPOfmb87tC0zRrPys1n5YvNUtG16+XUbS5C2dtJ600E0MbJNE&#xA;7MicQy174qpad+ZvnL8n/KNj5a17ylLfwadcT2OmX/6QtI5LyH6w/wBX9C1/eTyUjZR8KbbVpir2&#xA;PyF5i836/pX6Q8w+Wx5Z9WhtbKS7+s3JU/tTRiGERf6vIt4gYqg/zi0rzZrH5cazo/lWNZdY1KJb&#xA;RA8ixAQzOqXB5MQP7kt/DfbFXkzf84jIPJBgTzFcnzqbb6u2oF3+pNDw4fUfSO/1cAUDfar8VP2c&#xA;VevflNpvmrSvy70TS/NSImtafAbSYRyCUGOB2jgYuK1JhVCd/wCmKsuxV2KvP/zh/Jzy9+ZWgm1v&#xA;ALXWbVWOl6qq1eJzvwf+eJj9pfpG+KsS/JT/AJx3PlHU5fNHnG8TXfN7HjbXHOSaK3QDgHV5grvK&#xA;VFORHwjYeOKvbcVdirsVdirsVdirsVdirE/zH1i1tNGh0qa71DTJPMMw0q01jTYmke0uLhSIpHZQ&#xA;fTDPRAetT2+0FWF6nqtt+Xmnafr3me2t9c/NjUbc6NZrpYeObVCJR6PKPYbBUMkhT4ei9lxV5TYx&#xA;apfy6l+YXmq2j84ScZtK/MHypNbmO90W39QlGsUZiwSJV5clpXc1ryZVXrf5YeSVvrbT7zVLu28z&#xA;eX9Fljvfy+8xCSRdQS3lRla3uacKiLZaMfip8S7ABViX5n62vlX824bz8sYJNQ85zwPc+c9AtwPq&#xA;MtjChk9a7aqrDc7/AAMNzUV3YCRV7X5H856N5z8r2PmPRy/1G+UlUlUo6OpKujDxRgRUVB7HFXgn&#xA;+KNQuPz/APN5/LzRI7vXorWHR0mp6OnJIHL3l/qLx0LtHIoiRftNQ+G6qv5N81V/5yQjTzhoQ0rz&#xA;TqulC0dZh6sUd7a1KT6dOxalvc26sKLuHBUk7kqvpHFXYq7FXYq7FXYq7FXYq7FXYq7FXYq7FXYq&#xA;7FXYqlXmrVtR0jy5qOp6bp0mr31nA8tvpsJCyTOoqEUn+FT4AmgxV8tW1lba9w86fmDfreWvmtYY&#xA;9P8AOemvLGfLGpQyForOSJivoxqxUcz+11Pxc8VeueQPK/mDUPNg1XzbZ3Gn+b/LaizuPMNhxTT/&#xA;ADBYTRsIjKCKOycQzCgKmnTZVVWfmH+YX6Amj/Lb8srS1TzTLE8tw6KkVhoto3xy3l0QPTQgPzCk&#xA;d+RBqquq8+/K7ytoPnSXUvK/l7U3m8rWsyzeePMDycdU8w3bszCMfE0sNjXkak1bf9os2KvpuysL&#xA;OwsYbGxhS1tLaNYreCFQiRoooqooFAAOmKpX5R8m6B5T0v8AR2jW/pI7tNdXDnlPcTvu808nV5GP&#xA;Un5Cg2xVrzP5M0DzJ9Rk1KCt5pdwl3pl/HRbi2mjYMGjeh2JUclNVbuDiqeYq7FXYq7FXYq7FXYq&#xA;7FXYq7FXYq7FXYq7FXYq7FXYq8o88+RtT8vateedPJlgmoRXtG83eT2UNBqcS7meCMgqt2nXp8fz&#xA;+0qlfmr8+R5gtLDy/wDlWy6h5o1qAzy3k44QaPbA8Zbi95Aqkke/wGu+/wAVUV1XlR0RF0FzpcF/&#xA;qX5YR3yP+YPm+Cv6R1yVWYzzpUtK1hbyfa4nuzVZqtir3HXvy907UtO0fzd+WFxa6ZrumWqLotzb&#xA;gfUb2xoCLK5VNnhcfZPVDvirIvy8/MOx832Nwj276Z5h0xxb67oVwf39pP8A8bxv1jkGzD3qMVZb&#xA;irsVdirsVdirsVdirsVdirsVdirsVdirsVdirsVdirsVdirD/wA3fOMvk78t9e8wwMFvLS3K2RYB&#xA;gLidhDCeJ68ZJASPDFWGT/k15a85XNt5t0bUbjR9D83W8F35r0ezPCLU42UTxcmBBiYs9JeP2wT0&#xA;YklV63Z6fYWVhDp9pbx29jbxiGG2jULGkajiEVRsFA2piryfUdO1L8oNSn1vRIJLz8tLyQza3okI&#xA;LyaTI5q95ZoNzbk7yxD7P2l26Kpz5w8nr5lXT/P3kHUIbbzXbQh9N1JDytdQtW+L6pd8ftxP+y3V&#xA;DuMVTr8vPzDsfN9jcI9u+meYdMcW+u6FcH9/aT/8bxv1jkGzD3qMVZbirsVdirsVdirsVdirsVdi&#xA;rsVdirsVdirsVdirsVdiqQedNJ82ajpTL5W1z9CatGGMMkkENzbyE0osyyIzgbUDIRStSG6Yq8J0&#xA;m1/Mzzn5vs/IX5panHby6ZdRaydKTT19HU7W1c0aO8hYR+nyajK0anp3rRVR0L/ldem62v5Z/l/5&#xA;ghvdP8tsINS1S705YorGNyzxwtNM0jTvxOwSPwoaVoq+ifL2n6vYaZHBq2qvrF/9qa9eGG3BNACE&#xA;ihVQqVFRyLH/ACsVTFlVlKsAysKMp3BB7HFXkGo6dqX5QalPreiQSXn5aXkhm1vRIgXk0mRzV7yz&#xA;Qdbc9ZYh9n7S7dFWH6vqnmL8yfzDbzX+VaQaZZ+VIJYbvzdd84odUkAEgsCvwiSEU+JnHwg8qr8H&#xA;JV7L+WPn6189+ULXzBBayWbSM8NxbyfEqzRHjJ6Uo+CaPl9mRNj8wQFWV4q7FXYq7FXYq7FXYq7F&#xA;XYq7FXYq7FXYq7FXYq7FXYq+fv8AlVvmf8yvzJ1/zNr13caT5IuFXSrKyhYxXOoWNq9QOX2o7WaY&#xA;GXxcEbUo2Ko/yR5F87/l1+bbyXN5Pr/lDzJbJYDVJPiuIJrRSbIXxUfERGGgSXoaqDxNBir3LFXY&#xA;q1JHHJG0cih43BV0YVBB2IIPUHFXkF7+Qlx+kpdH0rXJdO/LLUpPrer+VoiQxmBqYLaUfFFbTk8p&#xA;UB7UXZvhVes2NjZWFlBY2MCW1nbIsVvbxKEREQUVVUbAAYqr4q//2Q==</xmpGImg:image>
               </rdf:li>
            </rdf:Alt>
         </xmp:Thumbnails>
      </rdf:Description>
      <rdf:Description rdf:about=""
            xmlns:xmpTPg="http://ns.adobe.com/xap/1.0/t/pg/"
            xmlns:stDim="http://ns.adobe.com/xap/1.0/sType/Dimensions#"
            xmlns:xmpG="http://ns.adobe.com/xap/1.0/g/">
         <xmpTPg:MaxPageSize rdf:parseType="Resource">
            <stDim:w>4.794867</stDim:w>
            <stDim:h>4.529680</stDim:h>
            <stDim:unit>Centimeters</stDim:unit>
         </xmpTPg:MaxPageSize>
         <xmpTPg:NPages>1</xmpTPg:NPages>
         <xmpTPg:HasVisibleTransparency>False</xmpTPg:HasVisibleTransparency>
         <xmpTPg:HasVisibleOverprint>False</xmpTPg:HasVisibleOverprint>
         <xmpTPg:PlateNames>
            <rdf:Seq>
               <rdf:li>Black</rdf:li>
            </rdf:Seq>
         </xmpTPg:PlateNames>
         <xmpTPg:SwatchGroups>
            <rdf:Seq>
               <rdf:li rdf:parseType="Resource">
                  <xmpG:groupName>Default Swatch Group</xmpG:groupName>
                  <xmpG:groupType>0</xmpG:groupType>
               </rdf:li>
            </rdf:Seq>
         </xmpTPg:SwatchGroups>
      </rdf:Description>
      <rdf:Description rdf:about=""
            xmlns:dc="http://purl.org/dc/elements/1.1/">
         <dc:format>image/svg+xml</dc:format>
      </rdf:Description>
      <rdf:Description rdf:about=""
            xmlns:xmpMM="http://ns.adobe.com/xap/1.0/mm/"
            xmlns:stRef="http://ns.adobe.com/xap/1.0/sType/ResourceRef#"
            xmlns:stEvt="http://ns.adobe.com/xap/1.0/sType/ResourceEvent#">
         <xmpMM:DerivedFrom rdf:parseType="Resource">
            <stRef:instanceID>xmp.iid:17DBAC9EE1D7E511ABF6D20018B81E32</stRef:instanceID>
            <stRef:documentID>xmp.did:17DBAC9EE1D7E511ABF6D20018B81E32</stRef:documentID>
            <stRef:originalDocumentID>xmp.did:13DBAC9EE1D7E511ABF6D20018B81E32</stRef:originalDocumentID>
            <stRef:renditionClass>proof:pdf</stRef:renditionClass>
         </xmpMM:DerivedFrom>
         <xmpMM:DocumentID>xmp.did:18DBAC9EE1D7E511ABF6D20018B81E32</xmpMM:DocumentID>
         <xmpMM:InstanceID>xmp.iid:18DBAC9EE1D7E511ABF6D20018B81E32</xmpMM:InstanceID>
         <xmpMM:OriginalDocumentID>xmp.did:13DBAC9EE1D7E511ABF6D20018B81E32</xmpMM:OriginalDocumentID>
         <xmpMM:History>
            <rdf:Seq>
               <rdf:li rdf:parseType="Resource">
                  <stEvt:action>saved</stEvt:action>
                  <stEvt:instanceID>xmp.iid:13DBAC9EE1D7E511ABF6D20018B81E32</stEvt:instanceID>
                  <stEvt:when>2016-02-20T19:59:04-03:00</stEvt:when>
                  <stEvt:softwareAgent>Adobe Illustrator CS6 (Windows)</stEvt:softwareAgent>
                  <stEvt:changed>/</stEvt:changed>
               </rdf:li>
               <rdf:li rdf:parseType="Resource">
                  <stEvt:action>saved</stEvt:action>
                  <stEvt:instanceID>xmp.iid:18DBAC9EE1D7E511ABF6D20018B81E32</stEvt:instanceID>
                  <stEvt:when>2016-02-20T20:14:30-03:00</stEvt:when>
                  <stEvt:softwareAgent>Adobe Illustrator CS6 (Windows)</stEvt:softwareAgent>
                  <stEvt:changed>/</stEvt:changed>
               </rdf:li>
            </rdf:Seq>
         </xmpMM:History>
         <xmpMM:RenditionClass>proof:pdf</xmpMM:RenditionClass>
      </rdf:Description>
   </rdf:RDF>
</x:xmpmeta>
                                                                                                    
                                                                                                    
                                                                                                    
                                                                                                    
                                                                                                    
                                                                                                    
                                                                                                    
                                                                                                    
                                                                                                    
                                                                                                    
                                                                                                    
                                                                                                    
                                                                                                    
                                                                                                    
                                                                                                    
                                                                                                    
                                                                                                    
                                                                                                    
                                                                                                    
                                                                                                    
                           
<?xpacket end="w"?>
	</metadata>
<g>
	<g>
		<polygon fill="#FFFFFF" points="104.619,16.695 108.146,29.662 121.568,29.01 110.326,36.373 115.093,48.937 104.619,40.519 
			94.142,48.937 98.91,36.373 87.667,29.01 101.089,29.662 		"/>
		<path d="M94.142,50.437c-0.309,0-0.618-0.095-0.882-0.287c-0.547-0.397-0.761-1.113-0.521-1.746l4.34-11.438l-10.234-6.702
			c-0.565-0.371-0.813-1.075-0.604-1.718c0.21-0.644,0.835-1.062,1.499-1.035l12.219,0.593l3.213-11.804
			c0.178-0.653,0.771-1.106,1.447-1.106l0,0c0.677,0,1.27,0.453,1.447,1.106l3.211,11.804l12.219-0.593
			c0.68-0.029,1.289,0.391,1.499,1.035c0.209,0.644-0.039,1.348-0.604,1.718l-10.234,6.702l4.34,11.438
			c0.24,0.633,0.026,1.348-0.521,1.746c-0.547,0.398-1.294,0.38-1.821-0.044l-9.535-7.663l-9.537,7.663
			C94.808,50.326,94.475,50.437,94.142,50.437z M93.101,30.776l6.631,4.342c0.589,0.386,0.83,1.129,0.58,1.787l-2.812,7.41
			l6.179-4.965c0.549-0.44,1.33-0.44,1.879,0l6.177,4.964l-2.812-7.409c-0.25-0.658-0.009-1.401,0.58-1.787l6.631-4.342
			l-7.916,0.384c-0.692,0.049-1.335-0.425-1.52-1.104l-2.08-7.647l-2.082,7.648c-0.185,0.679-0.815,1.151-1.52,1.104L93.101,30.776z
			"/>
	</g>
	<g>
		<polygon fill="#FFFFFF" points="36.258,83.164 39.323,94.426 50.977,93.857 41.216,100.254 45.356,111.164 36.258,103.853 
			27.163,111.164 31.301,100.254 21.539,93.857 33.195,94.426 		"/>
		<path d="M27.163,112.664c-0.309,0-0.618-0.095-0.881-0.286c-0.548-0.397-0.761-1.113-0.521-1.746l3.711-9.783l-8.755-5.736
			c-0.566-0.371-0.813-1.075-0.604-1.719c0.21-0.644,0.827-1.059,1.5-1.034l10.452,0.51l2.747-10.099
			c0.178-0.653,0.771-1.106,1.447-1.106s1.27,0.453,1.447,1.106l2.748,10.099l10.45-0.51c0.693-0.026,1.291,0.391,1.5,1.034
			c0.209,0.644-0.038,1.348-0.604,1.719l-8.753,5.736l3.712,9.783c0.24,0.633,0.027,1.348-0.521,1.746
			c-0.548,0.397-1.293,0.38-1.821-0.045l-8.158-6.555l-8.156,6.555C27.829,112.553,27.496,112.664,27.163,112.664z M36.258,102.353
			c0.333,0,0.665,0.11,0.939,0.331l4.8,3.856l-2.184-5.755c-0.25-0.658-0.008-1.401,0.58-1.787l5.15-3.375l-6.148,0.3
			c-0.724,0.016-1.336-0.425-1.521-1.104l-1.617-5.941l-1.616,5.941c-0.185,0.679-0.812,1.121-1.521,1.104l-6.149-0.3l5.151,3.375
			c0.588,0.386,0.83,1.129,0.58,1.787l-2.183,5.754l4.797-3.855C35.593,102.464,35.926,102.353,36.258,102.353z"/>
	</g>
	<g>
		<g>
			
				<rect x="24.744" y="36.046" transform="matrix(0.7071 -0.7071 0.7071 0.7071 -20.5582 49.1147)" fill="#FFFFFF" width="48.525" height="26.654"/>
			<path d="M41.274,78.453c-0.663,0-1.299-0.264-1.768-0.732L20.66,58.873c-0.977-0.976-0.977-2.559,0-3.535L54.97,21.025
				c0.938-0.938,2.598-0.938,3.535,0l18.848,18.848c0.977,0.976,0.977,2.559,0,3.535L43.042,77.72
				C42.573,78.189,41.937,78.453,41.274,78.453z M25.963,57.105l15.311,15.313L72.05,41.64L56.738,26.328L25.963,57.105z"/>
		</g>
		<g>
			
				<rect x="36.463" y="57.846" transform="matrix(0.7071 -0.7071 0.7071 0.7071 -25.4131 60.836)" fill="#FFFFFF" width="48.523" height="6.494"/>
			<path d="M45.866,83.045c-0.663,0-1.299-0.264-1.768-0.732l-4.592-4.592c-0.977-0.977-0.977-2.559,0-3.535l34.312-34.313
				c0.469-0.469,1.104-0.732,1.768-0.732l0,0c0.663,0,1.3,0.264,1.769,0.732l4.59,4.592c0.976,0.977,0.976,2.559-0.001,3.535
				L47.634,82.312C47.165,82.781,46.529,83.045,45.866,83.045z M44.81,75.953l1.056,1.057L76.64,46.232l-1.055-1.055L44.81,75.953z"
				/>
		</g>
		<g>
			
				<rect x="73.683" y="56.282" transform="matrix(0.7071 -0.7071 0.7071 0.7071 -33.47 80.2835)" fill="#FFFFFF" width="12.985" height="48.523"/>
			<path d="M92.74,104.791L92.74,104.791c-0.663,0-1.299-0.264-1.768-0.732l-34.31-34.313c-0.469-0.469-0.732-1.104-0.732-1.768
				s0.264-1.299,0.732-1.768l9.183-9.182c0.469-0.469,1.104-0.732,1.768-0.732l0,0c0.663,0,1.299,0.264,1.768,0.732l34.309,34.313
				c0.977,0.977,0.977,2.559,0,3.535l-9.182,9.182C94.039,104.527,93.403,104.791,92.74,104.791z M61.966,67.978L92.74,98.756
				l5.646-5.646L67.613,62.332L61.966,67.978z"/>
		</g>
		<g>
			
				<rect x="94.096" y="96.351" transform="matrix(0.7072 -0.707 0.707 0.7072 -41.9251 100.6801)" fill="#FFFFFF" width="12.983" height="9.209"/>
			<path d="M99.253,111.301c-0.64,0-1.279-0.244-1.768-0.731l-6.514-6.51c-0.469-0.469-0.732-1.105-0.732-1.769
				s0.264-1.299,0.732-1.768l9.182-9.182c0.977-0.977,2.559-0.977,3.535,0l6.514,6.512c0.469,0.469,0.732,1.104,0.732,1.768
				s-0.264,1.299-0.732,1.768l-9.182,9.18C100.533,111.056,99.893,111.301,99.253,111.301z M96.276,102.29l2.978,2.976l5.646-5.645
				l-2.978-2.977L96.276,102.29z"/>
		</g>
		<g>
			<g>
				<rect x="32.2" y="51.274" fill="#FFFFFF" width="0" height="12.348"/>
				<path d="M36.542,64.338c-0.645,0-1.289-0.248-1.777-0.742l-8.684-8.779c-0.482-0.487-0.722-1.122-0.723-1.756
					c0-0.645,0.247-1.29,0.742-1.779c0.98-0.971,2.565-0.963,3.535,0.02l8.684,8.779c0.482,0.487,0.722,1.122,0.723,1.756
					c0,0.645-0.247,1.29-0.742,1.779C37.813,64.097,37.177,64.338,36.542,64.338z"/>
			</g>
			<g>
				<rect x="57.081" y="26.394" fill="#FFFFFF" width="0" height="12.347"/>
				<path d="M61.421,39.457c-0.645,0-1.289-0.248-1.778-0.742l-8.682-8.779c-0.481-0.487-0.722-1.122-0.722-1.757
					c0-0.645,0.248-1.29,0.742-1.779c0.982-0.97,2.564-0.962,3.536,0.02l8.682,8.779c0.481,0.487,0.722,1.122,0.722,1.757
					c0,0.645-0.248,1.29-0.742,1.779C62.692,39.216,62.057,39.457,61.421,39.457z"/>
			</g>
			<g>
				<rect x="38.126" y="45.902" fill="#FFFFFF" width="0" height="15.019"/>
				<path d="M43.407,61.25c-0.645,0-1.289-0.248-1.777-0.742L31.068,49.83c-0.482-0.487-0.722-1.122-0.723-1.757
					c0-0.645,0.247-1.29,0.742-1.779c0.982-0.971,2.565-0.962,3.536,0.019l10.562,10.678c0.482,0.487,0.722,1.122,0.723,1.757
					c0,0.645-0.247,1.29-0.742,1.779C44.678,61.009,44.042,61.25,43.407,61.25z"/>
			</g>
			<g>
				<rect x="42.471" y="41.189" fill="#FFFFFF" width="0" height="13.241"/>
				<path d="M47.125,55.016c-0.645,0-1.289-0.248-1.778-0.742l-9.31-9.415c-0.481-0.487-0.722-1.122-0.722-1.757
					c0-0.645,0.248-1.29,0.742-1.779c0.982-0.97,2.564-0.963,3.536,0.02l9.31,9.415c0.481,0.487,0.722,1.122,0.722,1.757
					c0,0.645-0.248,1.29-0.742,1.779C48.396,54.776,47.761,55.016,47.125,55.016z"/>
			</g>
			<g>
				<rect x="48.078" y="35.95" fill="#FFFFFF" width="0" height="15.017"/>
				<path d="M53.358,51.297c-0.645,0-1.289-0.248-1.777-0.742L41.02,39.878c-0.482-0.487-0.722-1.122-0.723-1.757
					c0-0.645,0.247-1.29,0.742-1.779c0.982-0.971,2.564-0.962,3.536,0.019l10.561,10.677c0.482,0.487,0.722,1.122,0.723,1.757
					c0,0.645-0.247,1.29-0.742,1.779C54.629,51.056,53.993,51.297,53.358,51.297z"/>
			</g>
			<g>
				<rect x="52.422" y="31.237" fill="#FFFFFF" width="0" height="13.242"/>
				<path d="M57.078,45.065c-0.645,0-1.289-0.248-1.777-0.742l-9.312-9.415c-0.482-0.487-0.722-1.122-0.723-1.757
					c0-0.645,0.248-1.289,0.742-1.778c0.982-0.971,2.565-0.962,3.535,0.02l9.312,9.415c0.482,0.487,0.722,1.122,0.723,1.757
					c0,0.645-0.248,1.289-0.742,1.778C58.348,44.824,57.713,45.065,57.078,45.065z"/>
			</g>
		</g>
		<g>
			<rect x="19.98" y="43.122" fill="#FFFFFF" width="0" height="4.277"/>
			<path d="M21.484,49.281c-0.645,0-1.289-0.248-1.778-0.742l-3.007-3.041c-0.481-0.487-0.722-1.122-0.722-1.757
				c0-0.645,0.248-1.29,0.742-1.779c0.981-0.97,2.564-0.961,3.536,0.02l3.007,3.041c0.481,0.487,0.722,1.122,0.722,1.757
				c0,0.645-0.248,1.29-0.742,1.779C22.754,49.04,22.119,49.281,21.484,49.281z"/>
		</g>
		<g>
			<rect x="42.778" y="13.172" fill="#FFFFFF" width="0" height="10.201"/>
			<path d="M46.365,24.4c-0.645,0-1.289-0.248-1.778-0.742l-7.173-7.254c-0.481-0.487-0.722-1.122-0.722-1.757
				c0-0.645,0.248-1.29,0.742-1.779c0.981-0.97,2.565-0.961,3.536,0.02l7.173,7.254c0.481,0.487,0.722,1.122,0.722,1.757
				c0,0.645-0.248,1.29-0.742,1.779C47.635,24.159,47,24.4,46.365,24.4z"/>
		</g>
		<g>
			<rect x="24.069" y="35.985" fill="#FFFFFF" width="0" height="6.803"/>
			<path d="M26.46,44.304c-0.645,0-1.289-0.248-1.778-0.742l-4.783-4.837c-0.481-0.487-0.722-1.122-0.722-1.757
				c0-0.645,0.248-1.29,0.742-1.779c0.981-0.97,2.564-0.962,3.536,0.02l4.783,4.837c0.481,0.487,0.722,1.122,0.722,1.757
				c0,0.645-0.248,1.29-0.742,1.779C27.731,44.064,27.096,44.304,26.46,44.304z"/>
		</g>
		<g>
			<rect x="28.087" y="28.679" fill="#FFFFFF" width="0" height="9.525"/>
			<path d="M31.437,39.328c-0.644,0-1.288-0.248-1.777-0.742l-6.699-6.771c-0.481-0.487-0.722-1.122-0.723-1.757
				c0-0.645,0.247-1.29,0.742-1.779c0.98-0.971,2.563-0.963,3.536,0.019l6.699,6.771c0.481,0.487,0.722,1.122,0.723,1.757
				c0,0.645-0.247,1.29-0.742,1.779C32.708,39.087,32.072,39.328,31.437,39.328z"/>
		</g>
		<g>
			<rect x="28.686" y="16.556" fill="#FFFFFF" width="0" height="15.019"/>
			<path d="M33.966,31.905c-0.645,0-1.289-0.248-1.777-0.742L21.627,20.484c-0.482-0.487-0.722-1.122-0.723-1.757
				c0-0.645,0.248-1.289,0.742-1.778c0.981-0.971,2.565-0.962,3.535,0.02l10.562,10.679c0.482,0.487,0.722,1.122,0.723,1.757
				c0,0.645-0.248,1.289-0.742,1.778C35.237,31.664,34.602,31.905,33.966,31.905z"/>
		</g>
		<g>
			<rect x="37.542" y="17.516" fill="#FFFFFF" width="0" height="10.94"/>
			<path d="M41.389,29.375c-0.644,0-1.288-0.248-1.777-0.742l-7.694-7.777c-0.481-0.487-0.722-1.122-0.723-1.757
				c0-0.645,0.247-1.29,0.742-1.779c0.98-0.971,2.564-0.963,3.536,0.019l7.694,7.777c0.481,0.487,0.722,1.122,0.723,1.757
				c0,0.645-0.247,1.29-0.742,1.779C42.66,29.134,42.024,29.375,41.389,29.375z"/>
		</g>
	</g>
</g>
</svg>
