<?xml version="1.0" encoding="utf-8"?>
<!-- Generator: Adobe Illustrator 16.0.0, SVG Export Plug-In . SVG Version: 6.00 Build 0)  -->
<svg version="1.2" baseProfile="tiny" id="Layer_1" xmlns="http://www.w3.org/2000/svg" xmlns:xlink="http://www.w3.org/1999/xlink"
	 x="0px" y="0px" width="135px" height="135px" viewBox="0.458 -3.3 135 135" xml:space="preserve">
<g>
	<rect x="0.958" y="-3.3" fill="none" stroke="#FFFFFF" stroke-miterlimit="10" width="135" height="135"/>
	<path d="M44.19,44.206c0-1.562,0.546-2.85,1.639-3.867c1.094-1.012,2.515-1.523,4.265-1.523c1.715,0,3.106,0.501,4.167,1.5
		c1.093,1.034,1.641,2.378,1.641,4.029c0,1.5-0.532,2.751-1.593,3.75c-1.091,1.032-2.531,1.545-4.31,1.545h-0.045
		c-1.719,0-3.111-0.513-4.172-1.545C44.723,47.063,44.19,45.768,44.19,44.206z M44.8,85.201V53.904h10.399v31.297H44.8z
		 M60.962,85.201h10.401V67.725c0-1.091,0.126-1.935,0.375-2.528c0.436-1.063,1.1-1.963,1.993-2.696
		c0.885-0.735,2.004-1.101,3.348-1.101c3.497,0,5.248,2.359,5.248,7.076v16.725h10.401V67.257c0-4.625-1.091-8.13-3.28-10.521
		c-2.188-2.386-5.074-3.58-8.668-3.58c-4.029,0-7.167,1.732-9.417,5.2v0.093h-0.048l0.048-0.093v-4.452H60.962
		c0.064,0.996,0.091,4.106,0.091,9.323C61.053,68.44,61.027,75.767,60.962,85.201z"/>
</g>
</svg>
