<?xml version="1.0" encoding="utf-8"?>
<!-- Generator: Adobe Illustrator 16.0.0, SVG Export Plug-In . SVG Version: 6.00 Build 0)  -->
<!DOCTYPE svg PUBLIC "-//W3C//DTD SVG 1.0//EN" "http://www.w3.org/TR/2001/REC-SVG-20010904/DTD/svg10.dtd" [
	<!ENTITY ns_extend "http://ns.adobe.com/Extensibility/1.0/">
	<!ENTITY ns_ai "http://ns.adobe.com/AdobeIllustrator/10.0/">
	<!ENTITY ns_graphs "http://ns.adobe.com/Graphs/1.0/">
	<!ENTITY ns_vars "http://ns.adobe.com/Variables/1.0/">
	<!ENTITY ns_imrep "http://ns.adobe.com/ImageReplacement/1.0/">
	<!ENTITY ns_sfw "http://ns.adobe.com/SaveForWeb/1.0/">
	<!ENTITY ns_custom "http://ns.adobe.com/GenericCustomNamespace/1.0/">
	<!ENTITY ns_adobe_xpath "http://ns.adobe.com/XPath/1.0/">
]>
<svg version="1.0" id="Layer_1" xmlns:x="&ns_extend;" xmlns:i="&ns_ai;" xmlns:graph="&ns_graphs;"
	 xmlns="http://www.w3.org/2000/svg" xmlns:xlink="http://www.w3.org/1999/xlink" x="0px" y="0px" width="100px" height="61px"
	 viewBox="0 19.5 100 61" enable-background="new 0 19.5 100 61" xml:space="preserve">
<metadata>
	<sfw  xmlns="&ns_sfw;">
		<slices></slices>
		<sliceSourceBounds  width="697.255" height="196.999" y="2670.535" x="621.292" bottomLeftOrigin="true"></sliceSourceBounds>
	</sfw>
</metadata>
<g>
	<path fill="#FFFFFF" d="M58.435,51.537V37.929h-6.392v14.368H41.874V37.929H35.93V52.1c0,0.222,0.174,0.389,0.174,0.389
		l5.647,6.242c0.107,0.129,0.376,0.129,0.376,0.129h1.557v6.067c0,0-0.014,0.177,0.18,0.377l6.817,6.609V58.859h0.866
		c0.548,0,0.823-0.311,0.823-0.311l5.717-5.896C58.456,52.231,58.435,51.537,58.435,51.537z"/>
	
		<linearGradient id="SVGID_1_" gradientUnits="userSpaceOnUse" x1="357.9971" y1="-2682.8784" x2="371.0498" y2="-2682.8784" gradientTransform="matrix(0 -1 1 0 2730.0615 429.9102)">
		<stop  offset="0" style="stop-color:#FFFFFF"/>
		<stop  offset="0.3383" style="stop-color:#FDFDFD"/>
		<stop  offset="0.4949" style="stop-color:#F5F5F5"/>
		<stop  offset="0.6141" style="stop-color:#E9E9E9"/>
		<stop  offset="0.7143" style="stop-color:#D6D6D6"/>
		<stop  offset="0.8026" style="stop-color:#BFBFBF"/>
		<stop  offset="0.8826" style="stop-color:#A1A1A1"/>
		<stop  offset="0.9547" style="stop-color:#808080"/>
		<stop  offset="1" style="stop-color:#666666"/>
	</linearGradient>
	<path opacity="0.4" fill="url(#SVGID_1_)" d="M50.682,58.86v13.053l-6.817-6.609c-0.193-0.199-0.18-0.377-0.18-0.377V58.86H50.682z
		"/>
	<g>
		<path fill="#FFFFFF" d="M93.047,35.028c0,0.927-0.325,1.719-0.978,2.372c-0.653,0.65-1.44,0.977-2.366,0.977
			c-0.925,0-1.715-0.327-2.372-0.98c-0.655-0.654-0.985-1.443-0.985-2.368c0-0.929,0.33-1.723,0.985-2.381
			c0.657-0.66,1.447-0.989,2.372-0.989c0.926,0,1.713,0.329,2.366,0.989C92.722,33.305,93.047,34.099,93.047,35.028z M92.533,35.016
			c0-0.789-0.276-1.461-0.829-2.02c-0.552-0.555-1.22-0.833-2.001-0.833c-0.787,0-1.457,0.278-2.011,0.833
			c-0.554,0.558-0.829,1.231-0.829,2.02c0,0.79,0.275,1.463,0.829,2.022c0.554,0.557,1.224,0.836,2.011,0.836
			c0.781,0,1.449-0.279,2.001-0.836C92.257,36.479,92.533,35.806,92.533,35.016z M91.326,36.708h-0.813
			c-0.212-0.65-0.373-1.052-0.487-1.205c-0.113-0.152-0.296-0.229-0.549-0.229c-0.104,0-0.206,0.002-0.301,0.007
			c0,0.468,0.006,0.944,0.022,1.426h-0.764c0.025-0.555,0.038-1.18,0.038-1.873c0-0.668-0.013-1.24-0.038-1.714h0.478
			c0.054,0,0.169-0.001,0.343-0.007c0.174-0.005,0.334-0.008,0.485-0.008c0.837,0,1.256,0.288,1.256,0.864
			c0,0.46-0.239,0.779-0.719,0.958v0.04c0.183,0.051,0.346,0.195,0.487,0.435C90.904,35.639,91.092,36.075,91.326,36.708z
			 M90.301,34.174c0-0.364-0.233-0.545-0.702-0.545c-0.174,0-0.325,0.012-0.455,0.038c0.019,0.287,0.027,0.657,0.027,1.112
			c0.099,0.004,0.186,0.006,0.257,0.006C90.011,34.785,90.301,34.582,90.301,34.174z"/>
	</g>
	<g>
		<path fill="#FFFFFF" d="M85.278,43.75l-6.241-5.648c0,0-0.167-0.173-0.39-0.173h-9.04c-0.431,0-0.729,0.313-0.729,0.313
			l-6.021,5.45c-0.235,0.208-0.199,0.556-0.199,0.556v20.534c0,0-0.055,0.633,0.359,1.113l5.968,5.787c0,0,0.22,0.23,0.569,0.23
			h9.287l-6.564-6.392h-3.054v-5.088V43.872h9.621v10.169h-3.056l-6.565,6.392h8.862c0,0,0.694,0.021,1.115-0.346l5.896-5.717
			c0,0,0.31-0.275,0.31-0.825v-9.419C85.407,44.126,85.407,43.857,85.278,43.75z"/>
		
			<linearGradient id="SVGID_2_" gradientUnits="userSpaceOnUse" x1="3084.7988" y1="-1523.9004" x2="3091.1592" y2="-1523.9004" gradientTransform="matrix(-1 0 0 -1 3160.3828 -1483)">
			<stop  offset="0" style="stop-color:#FFFFFF"/>
			<stop  offset="0.3383" style="stop-color:#FDFDFD"/>
			<stop  offset="0.4949" style="stop-color:#F5F5F5"/>
			<stop  offset="0.6141" style="stop-color:#E9E9E9"/>
			<stop  offset="0.7143" style="stop-color:#D6D6D6"/>
			<stop  offset="0.8026" style="stop-color:#BFBFBF"/>
			<stop  offset="0.8826" style="stop-color:#A1A1A1"/>
			<stop  offset="0.9547" style="stop-color:#808080"/>
			<stop  offset="1" style="stop-color:#666666"/>
		</linearGradient>
		<path opacity="0.4" fill="url(#SVGID_2_)" d="M69.246,38.001c0,0,0.167-0.072,0.374-0.072h5.964v5.942h-6.36L69.246,38.001z"/>
		
			<linearGradient id="SVGID_3_" gradientUnits="userSpaceOnUse" x1="-610.5967" y1="-141.8589" x2="-600.9756" y2="-141.8589" gradientTransform="matrix(1 0 0 1 679.8203 199.0957)">
			<stop  offset="0" style="stop-color:#FFFFFF"/>
			<stop  offset="0.3383" style="stop-color:#FDFDFD"/>
			<stop  offset="0.4949" style="stop-color:#F5F5F5"/>
			<stop  offset="0.6141" style="stop-color:#E9E9E9"/>
			<stop  offset="0.7143" style="stop-color:#D6D6D6"/>
			<stop  offset="0.8026" style="stop-color:#BFBFBF"/>
			<stop  offset="0.8826" style="stop-color:#A1A1A1"/>
			<stop  offset="0.9547" style="stop-color:#808080"/>
			<stop  offset="1" style="stop-color:#666666"/>
		</linearGradient>
		<path opacity="0.4" fill="url(#SVGID_3_)" d="M78.839,60.299c0,0-0.34,0.134-0.694,0.133l-8.921,0.001l6.565-6.392h3.056
			L78.839,60.299z"/>
		
			<linearGradient id="SVGID_4_" gradientUnits="userSpaceOnUse" x1="3961.7441" y1="-130.3799" x2="3971.3809" y2="-130.3799" gradientTransform="matrix(-1 0 0 1 4040.5801 199.0967)">
			<stop  offset="0" style="stop-color:#FFFFFF"/>
			<stop  offset="0.3383" style="stop-color:#FDFDFD"/>
			<stop  offset="0.4949" style="stop-color:#F5F5F5"/>
			<stop  offset="0.6141" style="stop-color:#E9E9E9"/>
			<stop  offset="0.7143" style="stop-color:#D6D6D6"/>
			<stop  offset="0.8026" style="stop-color:#BFBFBF"/>
			<stop  offset="0.8826" style="stop-color:#A1A1A1"/>
			<stop  offset="0.9547" style="stop-color:#808080"/>
			<stop  offset="1" style="stop-color:#666666"/>
		</linearGradient>
		<path opacity="0.4" fill="url(#SVGID_4_)" d="M69.199,71.83c0,0,0.183,0.088,0.367,0.082h9.27l-6.582-6.392h-3.055V71.83z"/>
		
			<linearGradient id="SVGID_5_" gradientUnits="userSpaceOnUse" x1="379.6777" y1="-2647.9355" x2="386.0391" y2="-2647.9355" gradientTransform="matrix(0 -1 1 0 2730.0615 429.9102)">
			<stop  offset="0" style="stop-color:#FFFFFF"/>
			<stop  offset="0.3383" style="stop-color:#FDFDFD"/>
			<stop  offset="0.4949" style="stop-color:#F5F5F5"/>
			<stop  offset="0.6141" style="stop-color:#E9E9E9"/>
			<stop  offset="0.7143" style="stop-color:#D6D6D6"/>
			<stop  offset="0.8026" style="stop-color:#BFBFBF"/>
			<stop  offset="0.8826" style="stop-color:#A1A1A1"/>
			<stop  offset="0.9547" style="stop-color:#808080"/>
			<stop  offset="1" style="stop-color:#666666"/>
		</linearGradient>
		<path opacity="0.4" fill="url(#SVGID_5_)" d="M85.368,43.892c0,0,0.052,0.145,0.037,0.377v5.963h-6.561v-6.361L85.368,43.892z"/>
	</g>
	<g>
		<path fill="#FFFFFF" d="M24.963,37.876h-9.068c-0.433,0-0.733,0.314-0.733,0.314l-6.039,5.467
			c-0.237,0.208-0.199,0.558-0.199,0.558v20.596c0,0-0.057,0.634,0.358,1.116l6.226,6.037V60.449V43.837h9.649v10.2h-3.066
			l-6.583,6.412h8.89c0,0,0.696,0.021,1.119-0.347l5.913-5.735c0,0,0.312-0.275,0.312-0.826v-9.448c0,0,0-0.269-0.13-0.378
			l-6.261-5.664C25.352,38.052,25.185,37.875,24.963,37.876z"/>
		
			<linearGradient id="SVGID_6_" gradientUnits="userSpaceOnUse" x1="3138.5527" y1="-1523.8569" x2="3144.8838" y2="-1523.8569" gradientTransform="matrix(-1 0 0 -1 3160.3828 -1483)">
			<stop  offset="0" style="stop-color:#FFFFFF"/>
			<stop  offset="0.3383" style="stop-color:#FDFDFD"/>
			<stop  offset="0.4949" style="stop-color:#F5F5F5"/>
			<stop  offset="0.6141" style="stop-color:#E9E9E9"/>
			<stop  offset="0.7143" style="stop-color:#D6D6D6"/>
			<stop  offset="0.8026" style="stop-color:#BFBFBF"/>
			<stop  offset="0.8826" style="stop-color:#A1A1A1"/>
			<stop  offset="0.9547" style="stop-color:#808080"/>
			<stop  offset="1" style="stop-color:#666666"/>
		</linearGradient>
		<path opacity="0.3" fill="url(#SVGID_6_)" d="M15.499,37.948c0,0,0.208-0.071,0.396-0.071h5.936v5.961h-6.322L15.499,37.948z"/>
		
			<linearGradient id="SVGID_7_" gradientUnits="userSpaceOnUse" x1="-664.3115" y1="-141.8525" x2="-654.6621" y2="-141.8525" gradientTransform="matrix(1 0 0 1 679.8203 199.0957)">
			<stop  offset="0" style="stop-color:#FFFFFF"/>
			<stop  offset="0.3383" style="stop-color:#FDFDFD"/>
			<stop  offset="0.4949" style="stop-color:#F5F5F5"/>
			<stop  offset="0.6141" style="stop-color:#E9E9E9"/>
			<stop  offset="0.7143" style="stop-color:#D6D6D6"/>
			<stop  offset="0.8026" style="stop-color:#BFBFBF"/>
			<stop  offset="0.8826" style="stop-color:#A1A1A1"/>
			<stop  offset="0.9547" style="stop-color:#808080"/>
			<stop  offset="1" style="stop-color:#666666"/>
		</linearGradient>
		<path opacity="0.4" fill="url(#SVGID_7_)" d="M25.158,60.314c0,0-0.299,0.119-0.651,0.135h-8.998l6.583-6.412h3.066V60.314z"/>
		
			<linearGradient id="SVGID_8_" gradientUnits="userSpaceOnUse" x1="379.7578" y1="-2701.6104" x2="386.0879" y2="-2701.6104" gradientTransform="matrix(0 -1 1 0 2730.0615 429.9102)">
			<stop  offset="0" style="stop-color:#FFFFFF"/>
			<stop  offset="0.3383" style="stop-color:#FDFDFD"/>
			<stop  offset="0.4949" style="stop-color:#F5F5F5"/>
			<stop  offset="0.6141" style="stop-color:#E9E9E9"/>
			<stop  offset="0.7143" style="stop-color:#D6D6D6"/>
			<stop  offset="0.8026" style="stop-color:#BFBFBF"/>
			<stop  offset="0.8826" style="stop-color:#A1A1A1"/>
			<stop  offset="0.9547" style="stop-color:#808080"/>
			<stop  offset="1" style="stop-color:#666666"/>
		</linearGradient>
		<path opacity="0.4" fill="url(#SVGID_8_)" d="M31.695,43.822c0,0,0.058,0.124,0.047,0.373v5.958h-6.584v-6.331H31.695z"/>
	</g>
	
		<linearGradient id="SVGID_9_" gradientUnits="userSpaceOnUse" x1="3072.7236" y1="1735.5488" x2="3087.0918" y2="1735.5488" gradientTransform="matrix(0 1 1 0 -1680.3105 -3034.7949)">
		<stop  offset="0" style="stop-color:#FFFFFF"/>
		<stop  offset="0.3383" style="stop-color:#FDFDFD"/>
		<stop  offset="0.4949" style="stop-color:#F5F5F5"/>
		<stop  offset="0.6141" style="stop-color:#E9E9E9"/>
		<stop  offset="0.7143" style="stop-color:#D6D6D6"/>
		<stop  offset="0.8026" style="stop-color:#BFBFBF"/>
		<stop  offset="0.8826" style="stop-color:#A1A1A1"/>
		<stop  offset="0.9547" style="stop-color:#808080"/>
		<stop  offset="1" style="stop-color:#666666"/>
	</linearGradient>
	<path opacity="0.4" fill="url(#SVGID_9_)" d="M58.302,52.291c0,0,0.133-0.341,0.132-0.693l0.001-13.668h-6.392v14.368
		L58.302,52.291z"/>
	
		<linearGradient id="SVGID_10_" gradientUnits="userSpaceOnUse" x1="-1497.7305" y1="1040.1328" x2="-1491.3696" y2="1040.1328" gradientTransform="matrix(-1 0 0 1 -1449.4961 -984.5537)">
		<stop  offset="0" style="stop-color:#FFFFFF"/>
		<stop  offset="0.3383" style="stop-color:#FDFDFD"/>
		<stop  offset="0.4949" style="stop-color:#F5F5F5"/>
		<stop  offset="0.6141" style="stop-color:#E9E9E9"/>
		<stop  offset="0.7143" style="stop-color:#D6D6D6"/>
		<stop  offset="0.8026" style="stop-color:#BFBFBF"/>
		<stop  offset="0.8826" style="stop-color:#A1A1A1"/>
		<stop  offset="0.9547" style="stop-color:#808080"/>
		<stop  offset="1" style="stop-color:#666666"/>
	</linearGradient>
	<path opacity="0.4" fill="url(#SVGID_10_)" d="M41.894,58.82c0,0,0.145,0.053,0.377,0.037h5.963v-6.561h-6.361L41.894,58.82z"/>
</g>
</svg>
