<?xml version="1.0" encoding="utf-8"?>
<!-- Generator: Adobe Illustrator 16.0.0, SVG Export Plug-In . SVG Version: 6.00 Build 0)  -->
<!DOCTYPE svg PUBLIC "-//W3C//DTD SVG 1.1//EN" "http://www.w3.org/Graphics/SVG/1.1/DTD/svg11.dtd" [
	<!ENTITY st0 "opacity:0.4;fill:url(#SVGID_10_);">
	<!ENTITY st1 "opacity:0.4;fill:url(#SVGID_1_);">
	<!ENTITY st2 "opacity:0.4;fill:url(#SVGID_2_);">
	<!ENTITY st3 "opacity:0.4;fill:url(#SVGID_3_);">
	<!ENTITY st4 "opacity:0.4;fill:url(#SVGID_4_);">
	<!ENTITY st5 "opacity:0.4;fill:url(#SVGID_5_);">
	<!ENTITY st6 "opacity:0.4;fill:url(#SVGID_7_);">
	<!ENTITY st7 "opacity:0.4;fill:url(#SVGID_8_);">
	<!ENTITY st8 "opacity:0.4;fill:url(#SVGID_9_);">
	<!ENTITY st9 "fill:#FFFFFF;">
	<!ENTITY st10 "opacity:0.3;fill:url(#SVGID_6_);">
]>
<svg version="1.1" id="Layer_1" xmlns="http://www.w3.org/2000/svg" xmlns:xlink="http://www.w3.org/1999/xlink" x="0px" y="0px"
	 width="256.035px" height="114.278px" viewBox="0 0 256.035 114.278" style="enable-background:new 0 0 256.035 114.278;"
	 xml:space="preserve">
<g>
	<path style="&st9;" d="M157.908,56.366V17.781h-18.123v40.734h-28.829V17.781H94.107v40.176c0,0.628,0.494,1.105,0.494,1.105
		l16.011,17.695c0.304,0.361,1.066,0.361,1.066,0.361h4.412v17.203c0,0-0.038,0.502,0.51,1.068l19.328,18.738V77.12h2.455
		c1.557,0,2.337-0.879,2.337-0.879l16.207-16.716C157.967,58.332,157.908,56.366,157.908,56.366z"/>
	
		<linearGradient id="SVGID_1_" gradientUnits="userSpaceOnUse" x1="916.4531" y1="-2524.3813" x2="953.457" y2="-2524.3813" gradientTransform="matrix(0 -1 1 0 2650.3892 1030.5825)">
		<stop  offset="0" style="stop-color:#FFFFFF"/>
		<stop  offset="0.3389" style="stop-color:#FDFDFD"/>
		<stop  offset="0.4957" style="stop-color:#F5F5F5"/>
		<stop  offset="0.6151" style="stop-color:#E9E9E9"/>
		<stop  offset="0.7155" style="stop-color:#D6D6D6"/>
		<stop  offset="0.8039" style="stop-color:#BFBFBF"/>
		<stop  offset="0.884" style="stop-color:#A1A1A1"/>
		<stop  offset="0.9563" style="stop-color:#808080"/>
		<stop  offset="1" style="stop-color:#676767"/>
	</linearGradient>
	<path style="&st1;" d="M135.927,77.125v37.004L116.6,95.391c-0.548-0.564-0.51-1.068-0.51-1.068V77.125H135.927z"/>
	<g>
		<path style="&st9;" d="M256.035,9.558c0,2.63-0.92,4.873-2.768,6.724c-1.853,1.842-4.089,2.767-6.71,2.767
			s-4.864-0.927-6.726-2.778c-1.859-1.855-2.792-4.092-2.792-6.712c0-2.635,0.933-4.886,2.792-6.753
			C241.693,0.936,243.936,0,246.557,0s4.857,0.936,6.71,2.805C255.115,4.672,256.035,6.923,256.035,9.558z M254.58,9.524
			c0-2.236-0.783-4.144-2.348-5.725c-1.565-1.572-3.459-2.362-5.675-2.362c-2.229,0-4.13,0.79-5.699,2.362
			c-1.57,1.581-2.354,3.488-2.354,5.725c0,2.239,0.784,4.146,2.354,5.732c1.569,1.58,3.47,2.372,5.699,2.372
			c2.216,0,4.109-0.792,5.675-2.372C253.796,13.67,254.58,11.763,254.58,9.524z M251.158,14.319h-2.302
			c-0.601-1.843-1.06-2.981-1.382-3.413c-0.324-0.433-0.841-0.65-1.557-0.65c-0.299,0-0.586,0.005-0.854,0.022
			c0,1.327,0.019,2.675,0.064,4.041h-2.161c0.072-1.575,0.104-3.344,0.104-5.309c0-1.895-0.031-3.513-0.104-4.861h1.351
			c0.153,0,0.479-0.002,0.972-0.021c0.492-0.014,0.949-0.023,1.377-0.023c2.373,0,3.561,0.818,3.561,2.452
			c0,1.303-0.678,2.208-2.037,2.714v0.115c0.518,0.145,0.98,0.553,1.379,1.232C249.961,11.293,250.496,12.527,251.158,14.319z
			 M248.252,7.136c0-1.032-0.663-1.543-1.989-1.543c-0.492,0-0.922,0.034-1.291,0.105c0.049,0.814,0.074,1.863,0.074,3.154
			c0.279,0.01,0.527,0.016,0.732,0.016C247.43,8.868,248.252,8.291,248.252,7.136z"/>
	</g>
	<g>
		<path style="&st9;" d="M234.013,34.286L216.32,18.274c0,0-0.476-0.493-1.105-0.493h-25.631c-1.221,0-2.068,0.888-2.068,0.888
			l-17.068,15.449c-0.667,0.591-0.564,1.578-0.564,1.578v58.214c0,0-0.154,1.793,1.02,3.155l16.919,16.409
			c0,0,0.621,0.654,1.61,0.654h26.334l-18.612-18.121h-8.657V81.582V34.63h27.277v28.83h-8.666l-18.611,18.122h25.127
			c0,0,1.966,0.062,3.16-0.981l16.716-16.207c0,0,0.88-0.779,0.88-2.336V35.352C234.378,35.352,234.378,34.591,234.013,34.286z"/>
		
			<linearGradient id="SVGID_2_" gradientUnits="userSpaceOnUse" x1="3474.8555" y1="-828.8608" x2="3492.8867" y2="-828.8608" gradientTransform="matrix(-1 0 0 -1 3681.3828 -802.6553)">
			<stop  offset="0" style="stop-color:#FFFFFF"/>
			<stop  offset="0.3389" style="stop-color:#FDFDFD"/>
			<stop  offset="0.4957" style="stop-color:#F5F5F5"/>
			<stop  offset="0.6151" style="stop-color:#E9E9E9"/>
			<stop  offset="0.7155" style="stop-color:#D6D6D6"/>
			<stop  offset="0.8039" style="stop-color:#BFBFBF"/>
			<stop  offset="0.884" style="stop-color:#A1A1A1"/>
			<stop  offset="0.9563" style="stop-color:#808080"/>
			<stop  offset="1" style="stop-color:#676767"/>
		</linearGradient>
		<path style="&st2;" d="M188.56,17.988c0,0,0.475-0.207,1.059-0.207h16.908V34.63h-18.031L188.56,17.988z"/>
		
			<linearGradient id="SVGID_3_" gradientUnits="userSpaceOnUse" x1="-491.3247" y1="-126.5752" x2="-464.0474" y2="-126.5752" gradientTransform="matrix(1 0 0 1 679.8203 199.0957)">
			<stop  offset="0" style="stop-color:#FFFFFF"/>
			<stop  offset="0.3389" style="stop-color:#FDFDFD"/>
			<stop  offset="0.4957" style="stop-color:#F5F5F5"/>
			<stop  offset="0.6151" style="stop-color:#E9E9E9"/>
			<stop  offset="0.7155" style="stop-color:#D6D6D6"/>
			<stop  offset="0.8039" style="stop-color:#BFBFBF"/>
			<stop  offset="0.884" style="stop-color:#A1A1A1"/>
			<stop  offset="0.9563" style="stop-color:#808080"/>
			<stop  offset="1" style="stop-color:#676767"/>
		</linearGradient>
		<path style="&st3;" d="M215.756,81.206c0,0-0.965,0.376-1.97,0.374l-25.291,0.002l18.611-18.122h8.666L215.756,81.206z"/>
		
			<linearGradient id="SVGID_4_" gradientUnits="userSpaceOnUse" x1="4345.832" y1="-94.0278" x2="4373.1543" y2="-94.0278" gradientTransform="matrix(-1 0 0 1 4561.5801 199.0967)">
			<stop  offset="0" style="stop-color:#FFFFFF"/>
			<stop  offset="0.3389" style="stop-color:#FDFDFD"/>
			<stop  offset="0.4957" style="stop-color:#F5F5F5"/>
			<stop  offset="0.6151" style="stop-color:#E9E9E9"/>
			<stop  offset="0.7155" style="stop-color:#D6D6D6"/>
			<stop  offset="0.8039" style="stop-color:#BFBFBF"/>
			<stop  offset="0.884" style="stop-color:#A1A1A1"/>
			<stop  offset="0.9563" style="stop-color:#808080"/>
			<stop  offset="1" style="stop-color:#676767"/>
		</linearGradient>
		<path style="&st4;" d="M188.426,113.896c0,0,0.519,0.248,1.04,0.233h26.281l-18.66-18.121h-8.661V113.896z"/>
		
			<linearGradient id="SVGID_5_" gradientUnits="userSpaceOnUse" x1="977.918" y1="-2425.312" x2="995.9531" y2="-2425.312" gradientTransform="matrix(0 -1 1 0 2650.3892 1030.5825)">
			<stop  offset="0" style="stop-color:#FFFFFF"/>
			<stop  offset="0.3389" style="stop-color:#FDFDFD"/>
			<stop  offset="0.4957" style="stop-color:#F5F5F5"/>
			<stop  offset="0.6151" style="stop-color:#E9E9E9"/>
			<stop  offset="0.7155" style="stop-color:#D6D6D6"/>
			<stop  offset="0.8039" style="stop-color:#BFBFBF"/>
			<stop  offset="0.884" style="stop-color:#A1A1A1"/>
			<stop  offset="0.9563" style="stop-color:#808080"/>
			<stop  offset="1" style="stop-color:#676767"/>
		</linearGradient>
		<path style="&st5;" d="M234.267,34.688c0,0,0.149,0.412,0.107,1.069v16.907h-18.602V34.63L234.267,34.688z"/>
	</g>
	<g>
		<path style="&st9;" d="M63.013,17.635H37.304c-1.227,0-2.078,0.887-2.078,0.887l-17.12,15.5c-0.671,0.59-0.565,1.583-0.565,1.583
			v58.391c0,0-0.158,1.797,1.018,3.164l17.651,17.117V81.629V34.532h27.356v28.919h-8.692L36.21,81.629h25.201
			c0,0,1.974,0.058,3.175-0.983l16.765-16.259c0,0,0.883-0.779,0.883-2.342V35.258c0,0,0-0.761-0.368-1.068l-17.751-16.06
			C64.115,18.129,63.644,17.63,63.013,17.635z"/>
		
			<linearGradient id="SVGID_6_" gradientUnits="userSpaceOnUse" x1="3627.251" y1="-828.7388" x2="3645.2012" y2="-828.7388" gradientTransform="matrix(-1 0 0 -1 3681.3828 -802.6553)">
			<stop  offset="0" style="stop-color:#FFFFFF"/>
			<stop  offset="0.3389" style="stop-color:#FDFDFD"/>
			<stop  offset="0.4957" style="stop-color:#F5F5F5"/>
			<stop  offset="0.6151" style="stop-color:#E9E9E9"/>
			<stop  offset="0.7155" style="stop-color:#D6D6D6"/>
			<stop  offset="0.8039" style="stop-color:#BFBFBF"/>
			<stop  offset="0.884" style="stop-color:#A1A1A1"/>
			<stop  offset="0.9563" style="stop-color:#808080"/>
			<stop  offset="1" style="stop-color:#676767"/>
		</linearGradient>
		<path style="&st10;" d="M36.182,17.835c0,0,0.588-0.2,1.122-0.2h16.828v16.897H36.21L36.182,17.835z"/>
		
			<linearGradient id="SVGID_7_" gradientUnits="userSpaceOnUse" x1="-643.6099" y1="-126.5552" x2="-616.2534" y2="-126.5552" gradientTransform="matrix(1 0 0 1 679.8203 199.0957)">
			<stop  offset="0" style="stop-color:#FFFFFF"/>
			<stop  offset="0.3389" style="stop-color:#FDFDFD"/>
			<stop  offset="0.4957" style="stop-color:#F5F5F5"/>
			<stop  offset="0.6151" style="stop-color:#E9E9E9"/>
			<stop  offset="0.7155" style="stop-color:#D6D6D6"/>
			<stop  offset="0.8039" style="stop-color:#BFBFBF"/>
			<stop  offset="0.884" style="stop-color:#A1A1A1"/>
			<stop  offset="0.9563" style="stop-color:#808080"/>
			<stop  offset="1" style="stop-color:#676767"/>
		</linearGradient>
		<path style="&st6;" d="M63.567,81.247c0,0-0.847,0.339-1.849,0.383H36.21l18.664-18.178h8.692V81.247z"/>
		
			<linearGradient id="SVGID_8_" gradientUnits="userSpaceOnUse" x1="978.1426" y1="-2577.4868" x2="996.0938" y2="-2577.4868" gradientTransform="matrix(0 -1 1 0 2650.3892 1030.5825)">
			<stop  offset="0" style="stop-color:#FFFFFF"/>
			<stop  offset="0.3389" style="stop-color:#FDFDFD"/>
			<stop  offset="0.4957" style="stop-color:#F5F5F5"/>
			<stop  offset="0.6151" style="stop-color:#E9E9E9"/>
			<stop  offset="0.7155" style="stop-color:#D6D6D6"/>
			<stop  offset="0.8039" style="stop-color:#BFBFBF"/>
			<stop  offset="0.884" style="stop-color:#A1A1A1"/>
			<stop  offset="0.9563" style="stop-color:#808080"/>
			<stop  offset="1" style="stop-color:#676767"/>
		</linearGradient>
		<path style="&st7;" d="M82.098,34.489c0,0,0.164,0.353,0.136,1.059v16.892H63.567V34.489H82.098z"/>
	</g>
	
		<linearGradient id="SVGID_9_" gradientUnits="userSpaceOnUse" x1="2972.9033" y1="1908.8296" x2="3013.6367" y2="1908.8296" gradientTransform="matrix(0 1 1 0 -1759.9829 -2955.1226)">
		<stop  offset="0" style="stop-color:#FFFFFF"/>
		<stop  offset="0.3389" style="stop-color:#FDFDFD"/>
		<stop  offset="0.4957" style="stop-color:#F5F5F5"/>
		<stop  offset="0.6151" style="stop-color:#E9E9E9"/>
		<stop  offset="0.7155" style="stop-color:#D6D6D6"/>
		<stop  offset="0.8039" style="stop-color:#BFBFBF"/>
		<stop  offset="0.884" style="stop-color:#A1A1A1"/>
		<stop  offset="0.9563" style="stop-color:#808080"/>
		<stop  offset="1" style="stop-color:#676767"/>
	</linearGradient>
	<path style="&st8;" d="M157.531,58.5c0,0,0.377-0.965,0.373-1.969l0.004-38.749h-18.123v40.734L157.531,58.5z"/>
	
		<linearGradient id="SVGID_10_" gradientUnits="userSpaceOnUse" x1="-1057.4868" y1="1052.3735" x2="-1039.4521" y2="1052.3735" gradientTransform="matrix(-1 0 0 1 -928.4961 -984.5537)">
		<stop  offset="0" style="stop-color:#FFFFFF"/>
		<stop  offset="0.3389" style="stop-color:#FDFDFD"/>
		<stop  offset="0.4957" style="stop-color:#F5F5F5"/>
		<stop  offset="0.6151" style="stop-color:#E9E9E9"/>
		<stop  offset="0.7155" style="stop-color:#D6D6D6"/>
		<stop  offset="0.8039" style="stop-color:#BFBFBF"/>
		<stop  offset="0.884" style="stop-color:#A1A1A1"/>
		<stop  offset="0.9563" style="stop-color:#808080"/>
		<stop  offset="1" style="stop-color:#676767"/>
	</linearGradient>
	<path style="&st0;" d="M111.013,77.01c0,0,0.412,0.148,1.071,0.107h16.906V58.515h-18.035L111.013,77.01z"/>
</g>
</svg>
