<?xml version="1.0" encoding="utf-8"?>
<!-- Generator: Adobe Illustrator 16.0.0, SVG Export Plug-In . SVG Version: 6.00 Build 0)  -->
<svg version="1.2" baseProfile="tiny" id="Layer_1" xmlns="http://www.w3.org/2000/svg" xmlns:xlink="http://www.w3.org/1999/xlink"
	 x="0px" y="0px" width="135px" height="135px" viewBox="0.458 -3.3 135 135" xml:space="preserve">
<g>
	<path fill="#020202" d="M25.989,57.432h8.795c5.338,0,8.719,3.229,8.719,7.839c0,1.806-0.348,3.608-2.689,5.185
		c3.072,0.652,5.417,3.301,5.417,7.374c0,6.641-3.341,9.177-10.484,9.177h-9.757V57.432z M31.25,82.206h4.571
		c4.109,0,4.722-1.46,4.722-4.262c0-2.92-0.958-4.266-4.797-4.266H31.25V82.206z M31.288,61.968v6.834h3.535
		c2.188,0,3.225-1.571,3.225-3.455c0-1.497-0.651-3.379-3.264-3.379H31.288z"/>
	<path fill="#020202" d="M50.103,57.395h5.261v21.241c0,2.496,0.462,3.301,2.652,3.301v5.069c-6.106,0-7.913-1.807-7.913-8.293
		V57.395z"/>
	<path fill="#020202" d="M61.085,78.556v-5.45c0-5.956,2.843-8.835,8.795-8.835c5.953,0,8.795,2.727,8.795,8.835v5.45
		c0,6.108-2.842,8.834-8.795,8.834C63.928,87.39,61.085,84.665,61.085,78.556z M73.375,78.289v-4.915
		c0-2.807-0.73-4.417-3.495-4.417c-2.766,0-3.494,1.61-3.494,4.417v4.915c0,2.801,0.728,4.415,3.494,4.415
		C72.645,82.704,73.375,81.09,73.375,78.289z"/>
	<path fill="#020202" d="M82.511,78.636v-5.647c0-6.299,2.918-8.757,7.377-8.757c2.57,0,4.26,0.999,5.143,2.61l0.385-2.496h4.34
		v23.235c0,5.877-3.073,8.681-8.563,8.681c-5.531,0-8.181-2.38-8.181-7.181h5.029c0,1.767,1.04,2.689,3.151,2.689
		c2.762,0,3.647-1.422,3.647-4.226v-2.729c-0.807,1.231-2.151,2.304-4.8,2.304C85.314,87.121,82.511,84.47,82.511,78.636z
		 M94.57,77.865v-4.416c0-2.611-0.843-4.53-3.457-4.53c-2.071,0-3.341,1.076-3.341,4.339v4.723c0,3.188,1.075,4.496,3.265,4.496
		C93.727,82.476,94.57,80.746,94.57,77.865z"/>
	<path fill="#020202" d="M109.928,84.244c0,3.837-5.952,3.875-5.952,0C103.976,80.325,109.928,80.361,109.928,84.244z
		 M109.43,79.478h-4.838V57.432h5.22L109.43,79.478z"/>
</g>
<rect x="0.458" y="-3.299" fill="none" stroke="#FFFFFF" stroke-miterlimit="10" width="135" height="134.996"/>
</svg>
