<?xml version="1.0" encoding="utf-8"?>
<!-- Generator: Adobe Illustrator 21.1.0, SVG Export Plug-In . SVG Version: 6.00 Build 0)  -->
<svg version="1.1" id="Layer_1" xmlns="http://www.w3.org/2000/svg" xmlns:xlink="http://www.w3.org/1999/xlink" x="0px" y="0px"
	 viewBox="0 0 135.9 128.4" style="enable-background:new 0 0 135.9 128.4;" xml:space="preserve">
<style type="text/css">
	.st0{stroke:#000000;stroke-width:0.5;stroke-miterlimit:10;}
	.st1{fill:#FFFFFF;stroke:#000000;stroke-width:0.5;stroke-miterlimit:10;}
</style>
<g>
	<path class="st0" d="M111.3,51.5c0,13.7,0,27.5,0,41.2c0,0.1-0.1,0.1-0.1,0.2c-0.6,4-3.9,6.8-7.9,6.8c-22.7,0-45.5,0-68.2,0
		c-3.7,0-6.8-2.4-7.7-6c-0.1-0.3-0.1-0.6-0.2-0.9c0-13.7,0-27.5,0-41.2c0-0.1,0.1-0.1,0.1-0.2c0.4-3.2,2.8-5.8,5.9-6.5
		c1.6-0.4,3.2-0.6,4.9-0.9c2.2-0.4,4.5-0.7,6.7-1.1c0.3,0,0.4-0.2,0.6-0.4c1.1-2.8,2.3-5.7,3.4-8.5c1.3-3.2,4.1-5.1,7.5-5.1
		c8.7,0,17.3,0,26,0c0.5,0,1,0,1.5,0.1c2.9,0.6,4.9,2.3,6,5c1.1,2.7,2.2,5.5,3.3,8.2c0.2,0.5,0.4,0.7,0.9,0.7
		c3.6,0.6,7.1,1.1,10.7,1.8c3.2,0.6,5.4,2.5,6.4,5.6C111.1,50.6,111.2,51.1,111.3,51.5z M69.2,94.4c11.3,0,22.6,0,33.9,0
		c0.4,0,0.7,0,1.1-0.1c1.2-0.3,1.9-1.4,1.9-2.7c0-13,0-26,0-39c0-0.1,0-0.2,0-0.2c-0.1-1.3-0.9-2.3-2.1-2.5c-1-0.2-2-0.3-3-0.5
		c-3.7-0.6-7.4-1.2-11-1.8c-0.3,0-0.4-0.2-0.5-0.4c-1.5-3.7-3-7.4-4.4-11.1c-0.5-1.4-1.4-1.9-2.9-1.9c-8.6,0-17.1,0-25.7,0
		c-1.5,0-2.3,0.6-2.9,1.9c-1.5,3.7-3,7.4-4.4,11.1c-0.1,0.2-0.2,0.4-0.5,0.4c-2,0.3-4.1,0.7-6.1,1c-2.4,0.4-4.8,0.8-7.2,1.2
		c-2.2,0.3-2.9,1.6-2.9,3.3c0,12.8,0,25.7,0,38.5c0,1.9,1.1,2.9,2.9,2.9C46.7,94.4,58,94.4,69.2,94.4z"/>
	<path class="st1" d="M69.2,94.4c-11.3,0-22.6,0-33.8,0c-1.9,0-2.9-1.1-2.9-2.9c0-12.8,0-25.7,0-38.5c0-1.7,0.7-3,2.9-3.3
		c2.4-0.3,4.8-0.8,7.2-1.2c2-0.3,4.1-0.7,6.1-1c0.3,0,0.4-0.2,0.5-0.4c1.5-3.7,3-7.4,4.4-11.1c0.6-1.4,1.4-1.9,2.9-1.9
		c8.6,0,17.1,0,25.7,0c1.5,0,2.3,0.6,2.9,1.9c1.5,3.7,3,7.4,4.4,11.1c0.1,0.2,0.2,0.4,0.5,0.4c3.7,0.6,7.4,1.2,11,1.8
		c1,0.2,2,0.3,3,0.5c1.2,0.2,2.1,1.2,2.1,2.5c0,0.1,0,0.2,0,0.2c0,13,0,26,0,39c0,1.4-0.7,2.4-1.9,2.7c-0.3,0.1-0.7,0.1-1.1,0.1
		C91.8,94.4,80.5,94.4,69.2,94.4z M69.2,89.2c11.6,0,21-9.4,21-21c0-11.6-9.3-21-20.8-21.1c-11.8-0.1-21.3,9.5-21.3,21
		C48.2,79.8,57.6,89.2,69.2,89.2z"/>
	<path class="st0" d="M69.2,89.2c-11.6,0-21-9.4-21-21c0-11.6,9.5-21.1,21.3-21c11.5,0.1,20.8,9.5,20.8,21.1
		C90.2,79.8,80.8,89.2,69.2,89.2z M85,68.6c0.2-8.8-6.6-16-15.3-16.2c-8.7-0.3-15.9,6.5-16.2,15.2c-0.3,8.7,6.4,16,15.2,16.2
		C77.4,84.2,84.7,77.5,85,68.6z"/>
	<path class="st1" d="M85,68.6c-0.3,8.9-7.7,15.6-16.3,15.3c-8.8-0.3-15.5-7.6-15.2-16.2c0.3-8.8,7.5-15.5,16.2-15.2
		C78.4,52.7,85.2,59.8,85,68.6z M69,57.6c-1.5,0.1-2.9,0.3-4.2,1c-3.9,2-5.9,5.1-6,9.5c0,0.3,0.1,0.6,0.2,0.8
		c0.3,0.5,0.9,0.7,1.4,0.5c0.5-0.2,0.9-0.7,0.9-1.3c0-2.2,0.8-4,2.3-5.6c1.5-1.5,3.4-2.3,5.6-2.3c0.6,0,1.2-0.5,1.3-1.1
		c0.1-0.7-0.3-1.3-1-1.5C69.4,57.6,69.1,57.6,69,57.6z"/>
	<path class="st0" d="M69,57.6c0.1,0,0.4,0,0.6,0c0.7,0.2,1.1,0.8,1,1.5c-0.1,0.6-0.6,1.1-1.3,1.1c-2.2,0-4.1,0.8-5.6,2.3
		c-1.5,1.5-2.3,3.4-2.3,5.6c0,0.6-0.4,1.1-0.9,1.3c-0.5,0.2-1.1,0-1.4-0.5c-0.1-0.2-0.2-0.5-0.2-0.8c0.1-4.3,2.2-7.5,6-9.5
		C66.1,58,67.5,57.7,69,57.6z"/>
</g>
</svg>
