<?xml version="1.0" encoding="utf-8"?>
<!-- Generator: Adobe Illustrator 21.1.0, SVG Export Plug-In . SVG Version: 6.00 Build 0)  -->
<svg version="1.1" id="Layer_1" xmlns="http://www.w3.org/2000/svg" xmlns:xlink="http://www.w3.org/1999/xlink" x="0px" y="0px"
	 viewBox="0 0 135.9 128.4" style="enable-background:new 0 0 135.9 128.4;" xml:space="preserve">
<style type="text/css">
	.st0{stroke:#000000;stroke-width:2;stroke-miterlimit:10;}
	.st1{fill:#FFFFFF;stroke:#000000;stroke-width:2;stroke-miterlimit:10;}
</style>
<path class="st0" d="M58.3,100.1c-3,4-5.8,7.9-8.7,11.8c-1.3,1.8-2.1,1.9-3.7,0.3c-3.3-3.3-6.7-6.7-10-10c-1.4-1.4-1.4-2.3,0.2-3.5
	c3.7-2.7,7.3-5.4,11-8.1c0.3-0.2,0.6-0.4,0.8-0.6c-2.2-2.2-4.4-4.5-6.7-6.7c-1.5,2-3,4.1-4.5,6.1c-1.4,1.9-2.8,3.9-4.3,5.8
	c-1,1.3-2,1.4-3.1,0.3c-3.5-3.5-7-7-10.6-10.5c-1.2-1.2-1.1-2.1,0.2-3.1c3.7-2.7,7.4-5.4,11-8.2c0.3-0.2,0.6-0.5,1.3-1
	c-0.5-0.3-1-0.5-1.3-0.8c-1.5-1.4-2.9-2.9-4.3-4.3c-1-1-0.9-1.8,0-2.8c0.1-0.2,0.3-0.3,0.5-0.5c17.3-17.3,34.6-34.6,51.8-51.9
	c0.8-0.8,1.6-1.1,2.6-1.1c12.2,0,24.5,0,36.7,0c2.2,0,2.6,0.4,2.6,2.5c0,12.2,0,24.4,0,36.6c0,1.1-0.4,2-1.2,2.7
	C101.5,70.4,84.2,87.7,66.9,105c-1.5,1.5-2.2,1.5-3.7,0C61.6,103.4,60,101.8,58.3,100.1z M65,101.6C81.8,84.8,98.6,68,115.4,51.2
	c-11.8-11.8-23.7-23.7-35.6-35.6C63,32.4,46.2,49.3,29.4,66C41.2,77.9,53.1,89.8,65,101.6z M84.8,14.8
	c10.5,10.5,21.1,21.1,31.5,31.5c0-10.3,0-20.9,0-31.5C105.7,14.8,95.1,14.8,84.8,14.8z M39.6,100.4c2.7,2.7,5.4,5.4,8.2,8.2
	c2.6-3.5,5.3-7.2,8-10.8c-1.8-1.8-3.5-3.5-5.3-5.3C46.8,95.1,43.1,97.8,39.6,100.4z M33.4,75.3c-3.7,2.7-7.4,5.5-10.9,8.1
	c2.8,2.8,5.5,5.5,8.2,8.2c2.7-3.6,5.4-7.3,8.1-10.9C36.9,78.8,35.2,77.1,33.4,75.3z"/>
<path class="st0" d="M33.4,110.1c-0.3,0.6-0.5,1.1-0.8,1.4c-2.8,2.8-5.6,5.5-8.4,8.3c-0.8,0.8-1.8,0.8-2.5,0.1
	c-0.7-0.7-0.7-1.7,0-2.5c2.8-2.8,5.7-5.6,8.5-8.4c0.6-0.6,1.3-0.7,2-0.3C32.8,109,33,109.6,33.4,110.1z"/>
<path class="st0" d="M22.9,99.3c-0.3,0.6-0.5,1.1-0.8,1.4c-2.8,2.8-5.6,5.6-8.4,8.4c-0.8,0.8-1.8,0.8-2.5,0.1
	c-0.7-0.7-0.7-1.7,0.1-2.6c2.8-2.8,5.5-5.5,8.3-8.2c0.6-0.6,1.3-0.9,2-0.5C22.1,98.2,22.4,98.8,22.9,99.3z"/>
<path class="st0" d="M31.7,119.1c-0.5-0.4-1.2-0.7-1.3-1.2c-0.2-0.5-0.1-1.4,0.2-1.8c2.2-2.3,4.5-4.5,6.8-6.7
	c0.7-0.6,1.7-0.5,2.3,0.1c0.7,0.7,0.7,1.7,0,2.4c-2.1,2.2-4.3,4.3-6.5,6.4C32.8,118.6,32.3,118.7,31.7,119.1z"/>
<path class="st0" d="M13.9,100.9c-0.5-0.4-1.1-0.8-1.4-1.3c-0.4-0.7-0.1-1.4,0.4-1.9c1.3-1.3,2.6-2.6,3.9-3.8
	c0.8-0.8,1.6-1.7,2.5-2.5c0.8-0.8,1.9-0.8,2.6,0c0.6,0.7,0.6,1.7-0.2,2.5c-2.1,2.1-4.2,4.2-6.3,6.3C15,100.4,14.5,100.6,13.9,100.9z
	"/>
<path class="st1" d="M65,101.6C53.1,89.8,41.2,77.9,29.4,66C46.2,49.3,63,32.4,79.8,15.6c11.8,11.8,23.8,23.8,35.6,35.6
	C98.6,68,81.8,84.8,65,101.6z M82.6,58.8c5.7,0,10.3-4.6,10.3-10.4c0-5.7-4.6-10.3-10.4-10.3c-5.7,0-10.4,4.7-10.4,10.4
	C72.2,54.2,76.9,58.8,82.6,58.8z M62.2,58.6c-5.8,0-10.4,4.5-10.4,10.3c0,5.7,4.6,10.4,10.3,10.4c5.8,0,10.4-4.6,10.4-10.4
	C72.5,63.1,67.9,58.6,62.2,58.6z"/>
<path class="st1" d="M84.8,14.8c10.3,0,20.9,0,31.5,0c0,10.6,0,21.2,0,31.5C105.9,35.9,95.3,25.2,84.8,14.8z"/>
<path class="st1" d="M39.6,100.4c3.5-2.6,7.2-5.3,10.8-8c1.8,1.8,3.5,3.5,5.3,5.3c-2.7,3.6-5.4,7.3-8,10.8
	C45,105.8,42.3,103.1,39.6,100.4z"/>
<path class="st1" d="M33.4,75.3c1.8,1.8,3.5,3.5,5.3,5.3c-2.7,3.6-5.4,7.3-8.1,10.9c-2.7-2.7-5.4-5.4-8.2-8.2
	C26,80.8,29.7,78,33.4,75.3z"/>
<path class="st0" d="M82.6,58.8c-5.7,0-10.4-4.6-10.4-10.3c0-5.7,4.6-10.4,10.4-10.4c5.8,0,10.4,4.6,10.4,10.3
	C93,54.2,88.4,58.8,82.6,58.8z M89.5,48.5c0-3.8-3-6.9-6.8-7c-3.9-0.1-7.1,3.1-7.1,6.9c0,3.7,3.2,6.9,6.9,6.9
	C86.3,55.4,89.5,52.3,89.5,48.5z"/>
<path class="st0" d="M62.2,58.6c5.7,0,10.3,4.6,10.3,10.3c0,5.8-4.6,10.5-10.4,10.4c-5.7,0-10.4-4.7-10.3-10.4
	C51.8,63.1,56.4,58.5,62.2,58.6z M62.2,75.8c3.8,0,6.9-3.1,6.9-6.9c0-3.8-3.1-6.9-6.9-6.9c-3.8,0-6.9,3.1-6.9,6.8
	C55.2,72.6,58.4,75.8,62.2,75.8z"/>
</svg>
