<?xml version="1.0" encoding="utf-8"?>
<!-- Generator: Adobe Illustrator 16.0.0, SVG Export Plug-In . SVG Version: 6.00 Build 0)  -->
<!DOCTYPE svg PUBLIC "-//W3C//DTD SVG 1.1//EN" "http://www.w3.org/Graphics/SVG/1.1/DTD/svg11.dtd" [
	<!ENTITY ns_extend "http://ns.adobe.com/Extensibility/1.0/">
	<!ENTITY ns_ai "http://ns.adobe.com/AdobeIllustrator/10.0/">
	<!ENTITY ns_graphs "http://ns.adobe.com/Graphs/1.0/">
	<!ENTITY ns_vars "http://ns.adobe.com/Variables/1.0/">
	<!ENTITY ns_imrep "http://ns.adobe.com/ImageReplacement/1.0/">
	<!ENTITY ns_sfw "http://ns.adobe.com/SaveForWeb/1.0/">
	<!ENTITY ns_custom "http://ns.adobe.com/GenericCustomNamespace/1.0/">
	<!ENTITY ns_adobe_xpath "http://ns.adobe.com/XPath/1.0/">
]>
<svg version="1.1" id="Layer_1" xmlns:x="&ns_extend;" xmlns:i="&ns_ai;" xmlns:graph="&ns_graphs;"
	 xmlns="http://www.w3.org/2000/svg" xmlns:xlink="http://www.w3.org/1999/xlink" x="0px" y="0px" width="135.917px"
	 height="128.4px" viewBox="0 0 135.917 128.4" enable-background="new 0 0 135.917 128.4" xml:space="preserve">
<metadata>
	<sfw  xmlns="&ns_sfw;">
		<slices></slices>
		<sliceSourceBounds  width="318.148" height="206.281" x="1009.302" y="2636.268" bottomLeftOrigin="true"></sliceSourceBounds>
	</sfw>
</metadata>
<path fill-rule="evenodd" clip-rule="evenodd" d="M58.301,100.052c-2.963,4.01-5.832,7.889-8.695,11.771
	c-1.322,1.793-2.112,1.859-3.683,0.289c-3.34-3.34-6.68-6.68-10.02-10.02c-1.412-1.414-1.354-2.305,0.228-3.475
	c3.653-2.699,7.308-5.396,10.959-8.098c0.286-0.211,0.561-0.436,0.762-0.592c-2.234-2.238-4.449-4.455-6.738-6.746
	c-1.462,1.973-3.007,4.055-4.548,6.139c-1.424,1.928-2.841,3.859-4.27,5.783c-0.979,1.318-1.97,1.406-3.111,0.266
	c-3.521-3.512-7.039-7.027-10.552-10.549c-1.155-1.16-1.085-2.123,0.249-3.115c3.675-2.729,7.362-5.441,11.044-8.162
	c0.313-0.23,0.617-0.477,1.341-1.035c-0.492-0.293-0.952-0.463-1.274-0.773c-1.468-1.418-2.907-2.863-4.334-4.32
	c-0.954-0.973-0.937-1.822-0.001-2.794c0.148-0.155,0.303-0.304,0.455-0.456C43.394,46.884,60.679,29.608,77.94,12.306
	c0.776-0.779,1.567-1.086,2.647-1.083c12.237,0.027,24.475,0.017,36.713,0.018c2.165,0,2.59,0.418,2.59,2.545
	c0.001,12.202-0.01,24.403,0.018,36.604c0.002,1.125-0.36,1.956-1.152,2.747c-17.295,17.266-34.572,34.549-51.854,51.831
	c-1.51,1.51-2.18,1.518-3.66,0.035C61.624,103.385,60.009,101.764,58.301,100.052z M64.988,101.62
	c16.777-16.777,33.613-33.613,50.408-50.409c-11.823-11.822-23.737-23.735-35.582-35.579C63.032,32.414,46.188,49.259,29.407,66.04
	C41.229,77.862,53.142,89.774,64.988,101.62z M84.839,14.757c10.491,10.491,21.1,21.1,31.543,31.544c0-10.305,0-20.916,0-31.544
	C105.714,14.757,95.119,14.757,84.839,14.757z M39.572,100.372c2.729,2.729,5.439,5.441,8.162,8.164
	c2.611-3.537,5.324-7.211,7.975-10.801c-1.807-1.809-3.539-3.543-5.334-5.342C46.757,95.065,43.058,97.798,39.572,100.372z
	 M33.355,75.307c-3.684,2.723-7.376,5.451-10.906,8.063c2.766,2.766,5.456,5.455,8.178,8.178c2.653-3.594,5.381-7.291,8.059-10.918
	C36.882,78.829,35.167,77.116,33.355,75.307z"/>
<path fill-rule="evenodd" clip-rule="evenodd" d="M33.439,110.132c-0.343,0.592-0.51,1.086-0.842,1.418
	c-2.779,2.781-5.581,5.541-8.394,8.287c-0.801,0.783-1.755,0.779-2.472,0.072c-0.688-0.682-0.716-1.727,0.046-2.49
	c2.828-2.834,5.681-5.643,8.54-8.445c0.563-0.553,1.318-0.725,1.965-0.283C32.757,109.014,33.042,109.618,33.439,110.132z"/>
<path fill-rule="evenodd" clip-rule="evenodd" d="M22.857,99.339c-0.341,0.604-0.489,1.064-0.793,1.371
	c-2.799,2.818-5.612,5.619-8.447,8.398c-0.794,0.779-1.803,0.766-2.499,0.08c-0.727-0.715-0.702-1.734,0.128-2.564
	c2.756-2.758,5.53-5.498,8.299-8.244c0.58-0.574,1.297-0.92,2.023-0.473C22.082,98.223,22.416,98.829,22.857,99.339z"/>
<path fill-rule="evenodd" clip-rule="evenodd" d="M31.734,119.059c-0.49-0.428-1.158-0.748-1.345-1.248
	c-0.188-0.504-0.122-1.396,0.218-1.754c2.189-2.305,4.463-4.527,6.756-6.729c0.66-0.633,1.742-0.502,2.333,0.121
	c0.659,0.693,0.681,1.668-0.046,2.404c-2.136,2.158-4.291,4.297-6.471,6.41C32.843,118.589,32.335,118.737,31.734,119.059z"/>
<path fill-rule="evenodd" clip-rule="evenodd" d="M13.876,100.95c-0.515-0.447-1.11-0.783-1.432-1.293
	c-0.426-0.676-0.148-1.389,0.402-1.939c1.289-1.285,2.596-2.553,3.891-3.832c0.838-0.828,1.649-1.686,2.508-2.492
	c0.847-0.795,1.862-0.787,2.567-0.039c0.649,0.689,0.606,1.713-0.167,2.488c-2.092,2.098-4.192,4.188-6.318,6.25
	C14.994,100.417,14.507,100.585,13.876,100.95z"/>
<path fill-rule="evenodd" clip-rule="evenodd" fill="#FFFFFF" d="M64.988,101.62C53.142,89.774,41.229,77.862,29.407,66.04
	c16.781-16.781,33.625-33.625,50.407-50.407c11.845,11.843,23.759,23.756,35.582,35.579C98.601,68.007,81.765,84.843,64.988,101.62z
	 M82.646,58.802c5.741-0.014,10.337-4.639,10.333-10.398c-0.004-5.741-4.637-10.342-10.396-10.322
	c-5.744,0.02-10.381,4.667-10.359,10.383C72.246,54.182,76.917,58.816,82.646,58.802z M62.205,58.551
	c-5.787-0.003-10.383,4.541-10.414,10.295c-0.031,5.713,4.607,10.367,10.349,10.389c5.787,0.021,10.447-4.648,10.412-10.432
	C72.516,63.108,67.92,58.554,62.205,58.551z"/>
<path fill-rule="evenodd" clip-rule="evenodd" fill="#FFFFFF" d="M84.839,14.757c10.279,0,20.875,0,31.543,0
	c0,10.628,0,21.239,0,31.544C105.939,35.857,95.331,25.248,84.839,14.757z"/>
<path fill-rule="evenodd" clip-rule="evenodd" fill="#FFFFFF" d="M39.572,100.372c3.486-2.574,7.186-5.307,10.803-7.979
	c1.795,1.799,3.527,3.533,5.334,5.342c-2.65,3.59-5.363,7.264-7.975,10.801C45.011,105.813,42.3,103.1,39.572,100.372z"/>
<path fill-rule="evenodd" clip-rule="evenodd" fill="#FFFFFF" d="M33.355,75.307c1.812,1.809,3.527,3.521,5.33,5.322
	c-2.678,3.627-5.405,7.324-8.059,10.918c-2.722-2.723-5.412-5.412-8.178-8.178C25.979,80.759,29.671,78.03,33.355,75.307z"/>
<path fill-rule="evenodd" clip-rule="evenodd" d="M82.646,58.802c-5.729,0.014-10.4-4.62-10.422-10.336
	c-0.021-5.716,4.615-10.363,10.359-10.383c5.759-0.02,10.392,4.581,10.396,10.322C92.983,54.163,88.387,58.787,82.646,58.802z
	 M89.543,48.53c0.039-3.806-2.995-6.943-6.779-7.011c-3.883-0.068-7.109,3.078-7.104,6.929c0.005,3.743,3.155,6.896,6.912,6.918
	C86.35,55.388,89.505,52.294,89.543,48.53z"/>
<path fill-rule="evenodd" clip-rule="evenodd" d="M62.205,58.551c5.716,0.003,10.312,4.557,10.347,10.252
	c0.035,5.783-4.625,10.453-10.412,10.432c-5.741-0.021-10.38-4.676-10.349-10.389C51.822,63.092,56.417,58.548,62.205,58.551z
	 M62.18,75.8c3.793-0.004,6.88-3.076,6.912-6.879c0.032-3.836-3.071-6.94-6.935-6.934c-3.816,0.006-6.904,3.057-6.931,6.848
	C55.201,72.637,58.359,75.802,62.18,75.8z"/>
</svg>
