<?xml version="1.0" encoding="utf-8"?>
<!-- Generator: Adobe Illustrator 16.0.0, SVG Export Plug-In . SVG Version: 6.00 Build 0)  -->
<!DOCTYPE svg PUBLIC "-//W3C//DTD SVG 1.1//EN" "http://www.w3.org/Graphics/SVG/1.1/DTD/svg11.dtd">
<svg version="1.1" id="Layer_1" xmlns="http://www.w3.org/2000/svg" xmlns:xlink="http://www.w3.org/1999/xlink" x="0px" y="0px"
	 width="208px" height="135px" viewBox="-37 0 208 135" enable-background="new -37 0 208 135" xml:space="preserve">
<g>
	<g>
		<path fill="#020202" d="M-6.39,91.143h-5.146l-8.678-18.74l0.46,11.215v7.525h-5.263v-29.53h5.263l8.68,19.47l-0.576-12.48v-6.989
			h5.259V91.143z"/>
		<path fill="#020202" d="M15.42,84.193c0,4.762-2.839,7.029-8.792,7.029c-5.954,0-8.796-2.729-8.796-8.834v-5.146
			c0-5.686,2.842-8.83,8.796-8.83c5.953,0,8.792,2.723,8.792,8.83v4.49H3.134v0.58c0,3.648,1.419,4.338,3.57,4.338
			c2.496,0,3.534-0.881,3.534-2.457H15.42z M3.134,77.395h7.18c0-2.84-0.538-4.418-3.533-4.418
			C3.669,72.977,3.134,74.668,3.134,77.395z"/>
		<path fill="#020202" d="M34.354,68.486l1.728,7.258c0.729,3.072,1.267,6.066,1.689,9.064c0.381-2.883,0.922-6.451,1.688-9.525
			l1.959-6.797h5.417l-6.565,22.697h-5.034l-1.343-4.955l-1.577-7.988l-1.571,8.064l-1.346,4.879h-4.993l-6.645-22.697h5.455
			l1.996,6.797c0.769,3.074,1.267,6.643,1.652,9.525c0.307-2.076,0.384-4.381,1.497-9.143c0.461-1.918,1.268-4.338,2.075-7.18
			H34.354z"/>
		<path fill="#020202" d="M60.58,75.59c0-1.729-1.344-2.496-3.035-2.496c-2.035,0-3.265,0.807-3.265,2.379
			c0,2.498,2.613,2.152,5.646,2.498c3.033,0.346,6.068,2.15,6.068,6.184c0,4.955-3.877,7.104-8.756,7.104
			c-5.378,0-8.603-2.725-8.603-7.104h5.337c0.117,1.572,0.959,2.496,3.496,2.496c2.11,0,3.188-1.188,3.188-2.305
			c0-1.92-2.496-1.957-5.224-2.301c-3.304-0.428-6.49-1.848-6.49-6.301c0-5.109,3.649-7.373,8.566-7.373
			c5.567,0,8.217,3.148,8.217,7.219H60.58z"/>
		<path fill="#020202" d="M69.869,61.535h5.264v21.236c0,2.498,0.458,3.303,2.648,3.303v5.068c-6.107,0-7.912-1.803-7.912-8.293
			V61.535z"/>
		<path fill="#020202" d="M98.559,84.193c0,4.762-2.845,7.029-8.798,7.029c-5.951,0-8.795-2.729-8.795-8.834v-5.146
			c0-5.686,2.844-8.83,8.795-8.83c5.953,0,8.798,2.723,8.798,8.83v4.49H86.267v0.58c0,3.648,1.421,4.338,3.572,4.338
			c2.498,0,3.535-0.881,3.535-2.457H98.559z M86.267,77.395h7.181c0-2.84-0.536-4.418-3.529-4.418
			C86.807,72.977,86.267,74.668,86.267,77.395z"/>
		<path fill="#020202" d="M102.896,64.567l5.26-0.575v4.42h3.841v4.795h-3.841v9.564c0,2.498,0.386,4.188,3.917,3.764v4.607
			c-6.681,0.732-9.177-1.572-9.177-8.293V64.567z"/>
		<path fill="#020202" d="M115.72,64.567l5.262-0.575v4.42h3.838v4.795h-3.838v9.564c0,2.498,0.383,4.188,3.917,3.764v4.607
			c-6.681,0.732-9.179-1.572-9.179-8.293V64.567z"/>
		<path fill="#020202" d="M145.711,84.193c0,4.762-2.84,7.029-8.792,7.029c-5.954,0-8.795-2.729-8.795-8.834v-5.146
			c0-5.686,2.841-8.83,8.795-8.83c5.952,0,8.792,2.723,8.792,8.83v4.49h-12.29v0.58c0,3.648,1.424,4.338,3.573,4.338
			c2.498,0,3.534-0.881,3.534-2.457H145.711z M133.421,77.395h7.183c0-2.84-0.536-4.418-3.531-4.418
			C133.961,72.977,133.421,74.668,133.421,77.395z"/>
		<path fill="#020202" d="M161.416,73.941c-3.416-0.463-6.105,0.883-6.105,4.258v12.984h-5.261V68.486h4.837l0.23,2.381
			c0.924-1.576,3.496-2.958,6.299-2.496V73.941z"/>
	</g>
</g>
</svg>
