<?xml version="1.0" encoding="iso-8859-1"?>
<!-- Generator: Adobe Illustrator 16.0.0, SVG Export Plug-In . SVG Version: 6.00 Build 0)  -->
<!DOCTYPE svg PUBLIC "-//W3C//DTD SVG 1.1//EN" "http://www.w3.org/Graphics/SVG/1.1/DTD/svg11.dtd" [
	<!ENTITY ns_extend "http://ns.adobe.com/Extensibility/1.0/">
	<!ENTITY ns_ai "http://ns.adobe.com/AdobeIllustrator/10.0/">
	<!ENTITY ns_graphs "http://ns.adobe.com/Graphs/1.0/">
	<!ENTITY ns_vars "http://ns.adobe.com/Variables/1.0/">
	<!ENTITY ns_imrep "http://ns.adobe.com/ImageReplacement/1.0/">
	<!ENTITY ns_sfw "http://ns.adobe.com/SaveForWeb/1.0/">
	<!ENTITY ns_custom "http://ns.adobe.com/GenericCustomNamespace/1.0/">
	<!ENTITY ns_adobe_xpath "http://ns.adobe.com/XPath/1.0/">
]>
<svg version="1.1" id="Layer_1" xmlns:x="&ns_extend;" xmlns:i="&ns_ai;" xmlns:graph="&ns_graphs;"
	 xmlns="http://www.w3.org/2000/svg" xmlns:xlink="http://www.w3.org/1999/xlink" x="0px" y="0px" width="100px" height="100px"
	 viewBox="0 0 100 100" enable-background="new 0 0 100 100" xml:space="preserve">
<metadata>
	<sfw  xmlns="&ns_sfw;">
		<slices></slices>
		<sliceSourceBounds  width="535.8491211" height="85.7373047" y="-116.7460938" x="-440.0292969" bottomLeftOrigin="true">
			</sliceSourceBounds>
	</sfw>
</metadata>
<g>
	<g>
		<g>
			<path fill="#010101" d="M97.0698242,43.1962891c0,2.0820313-0.7275391,3.855957-2.1923828,5.3222656
				c-1.4663086,1.4589844-3.2348633,2.1914063-5.3105469,2.1914063c-2.074707,0-3.8500977-0.7353516-5.3237305-2.2001953
				c-1.4716797-1.46875-2.2104492-3.2392578-2.2104492-5.3134766c0-2.0849609,0.7387695-3.8686523,2.2104492-5.3457031
				c1.4736328-1.4799805,3.2490234-2.2197266,5.3237305-2.2197266c2.0756836,0,3.8442383,0.7397461,5.3105469,2.2197266
				C96.3422852,39.3276367,97.0698242,41.1113281,97.0698242,43.1962891z M95.9165039,43.1694336
				c0-1.7700195-0.6186523-3.2797852-1.8583984-4.5317383c-1.2382813-1.2456055-2.737793-1.8696289-4.4912109-1.8696289
				c-1.7646484,0-3.2695313,0.6240234-4.512207,1.8696289c-1.2426758,1.2519531-1.8632813,2.7617188-1.8632813,4.5317383
				c0,1.7729492,0.6206055,3.2822266,1.8632813,4.5375977c1.2426758,1.2509766,2.7475586,1.8764648,4.512207,1.8764648
				c1.753418,0,3.2529297-0.6254883,4.4912109-1.8764648C95.2978516,46.4516602,95.9165039,44.9423828,95.9165039,43.1694336z
				 M93.2084961,46.965332h-1.8227539c-0.4750977-1.4580078-0.8388672-2.3603516-1.0942383-2.7021484
				c-0.2548828-0.3417969-0.6640625-0.5136719-1.2304688-0.5136719c-0.2363281,0-0.4643555,0.0043945-0.6767578,0.0161133
				c0,1.0517578,0.0146484,2.1186523,0.0507813,3.199707h-1.7119141c0.0581055-1.2451172,0.0830078-2.6469727,0.0830078-4.2026367
				c0-1.4995117-0.0249023-2.7807617-0.0830078-3.8461914h1.0708008c0.121582,0,0.3789063-0.003418,0.7700195-0.0180664
				c0.3876953-0.0112305,0.7490234-0.0180664,1.0883789-0.0180664c1.878418,0,2.8188477,0.6464844,2.8188477,1.9399414
				c0,1.0322266-0.5380859,1.7480469-1.6118164,2.1494141v0.0908203c0.4091797,0.1147461,0.7753906,0.4384766,1.0913086,0.9746094
				C92.2612305,44.5698242,92.6835938,45.546875,93.2084961,46.965332z M90.9086914,41.2792969
				c0-0.8173828-0.5239258-1.222168-1.5756836-1.222168c-0.3891602,0-0.7275391,0.0283203-1.0214844,0.0834961
				c0.0400391,0.6459961,0.0600586,1.4755859,0.0600586,2.4975586c0.2211914,0.0078125,0.4150391,0.0131836,0.5776367,0.0131836
				C90.2583008,42.6513672,90.9086914,42.1943359,90.9086914,41.2792969z"/>
		</g>
		<g>
			<g>
				<g>
					<g>
						<path fill="#010101" d="M9.1884766,43.4975586v-7.784668c-0.2021484,0.0874023-0.324707,0.2158203-0.324707,0.2158203
							l-5.7416992,5.1977539c-0.2255859,0.1977539-0.1894531,0.5292969-0.1894531,0.5292969v19.5825195
							c0,0-0.0537109,0.6020508,0.3417969,1.0615234l5.9189453,5.7397461V57.0908203V43.4975586H9.1884766z"/>
					</g>
					<g>
						<path fill="#010101" d="M10.0976563,41.2978516h8.2695313h6.2138672
							c-0.0185547-0.0449219-0.0419922-0.0874023-0.0776367-0.1166992l-5.9526367-5.3837891
							c0,0-0.1577148-0.1669922-0.3691406-0.1665039h-8.0839844V41.2978516z"/>
					</g>
					<g>
						<polygon fill="#010101" points="17.4560547,50.9951172 15.4516602,50.9951172 9.1933594,57.0908203 17.4560547,57.0908203 
													"/>
					</g>
					<g>
						<path fill="#010101" d="M18.3671875,42.2084961v7.5488281v1.237793v5.9672852
							c0.1206055-0.0473633,0.2392578-0.112793,0.3417969-0.2001953l5.6220703-5.4536133
							c0,0,0.2958984-0.2617188,0.2958984-0.784668v-8.3154297H18.3671875z"/>
					</g>
				</g>
			</g>
			<g>
				<g>
					<path fill="#010101" d="M60.2446289,40.5517578v-4.8388672c-0.2016602,0.0874023-0.324707,0.2158203-0.324707,0.2158203
						l-5.7416992,5.1977539c-0.2246094,0.1977539-0.1889648,0.5292969-0.1889648,0.5292969v5.4477539
						c-0.0053711,0.0976563,0,0.1577148,0,0.1577148v9.2299805c0,0-0.0053711,0.0600586,0,0.1567383v5.4467773
						c0,0-0.0356445,0.3325195,0.1889648,0.5302734l5.7416992,5.1982422c0,0,0.1230469,0.1274414,0.324707,0.2163086v-4.8388672
						L60.25,63.2060547v-2.9516602v-3.1635742V46.6606445v-3.1630859v-2.9511719L60.2446289,40.5517578z"/>
				</g>
				<g>
					<path fill="#010101" d="M61.1552734,41.2978516h8.2680664h6.2138672
						c-0.0180664-0.0449219-0.0419922-0.0874023-0.0776367-0.1166992l-5.9521484-5.3837891
						c0,0-0.1582031-0.1669922-0.3706055-0.1665039h-8.081543V41.2978516z"/>
				</g>
				<g>
					<polygon fill="#010101" points="68.5126953,50.9951172 66.5078125,50.9951172 60.25,57.0908203 68.5126953,57.0908203 					"/>
				</g>
				<g>
					<polygon fill="#010101" points="61.1582031,61.9438477 63.1625977,61.9438477 69.4208984,68.0395508 61.1582031,68.0395508 
											"/>
				</g>
				<g>
					<path fill="#010101" d="M69.4233398,42.2084961v7.5488281v1.237793v5.9672852
						c0.1201172-0.0473633,0.2397461-0.112793,0.3417969-0.2001953l5.6210938-5.4536133c0,0,0.296875-0.2617188,0.296875-0.784668
						v-8.3154297H69.4233398z"/>
				</g>
			</g>
			<g>
				<g>
					<g>
						<path fill="#010101" d="M35.1699219,49.3408203h8.7583008h5.9472656
							c-0.0478516,0.1186523-0.1123047,0.2368164-0.2001953,0.3378906l-5.4345703,5.6054688
							c0,0-0.2617188,0.2954102-0.784668,0.2954102h-8.2861328V49.3408203z"/>
					</g>
					<g>
						<rect x="43.9282227" y="35.6801758" fill="#010101" width="6.0766602" height="12.7495117"/>
					</g>
					<g>
						<path fill="#010101" d="M34.2592773,35.6801758v13.6606445v6.1928711
							c-0.0444336-0.0180664-0.0859375-0.0415039-0.1152344-0.0766602l-5.3686523-5.9335938
							c0,0-0.1660156-0.1591797-0.1660156-0.3706055V35.6801758H34.2592773z"/>
					</g>
				</g>
				<g>
					<path fill="#010101" d="M35.9799805,56.4912109v4.8569336c0,0-0.0117188,0.1674805,0.1723633,0.3583984l6.4804688,6.2836914
						V56.4912109H35.9799805z"/>
				</g>
			</g>
		</g>
	</g>
</g>
</svg>
