<?xml version="1.0" encoding="utf-8"?>
<!-- Generator: Adobe Illustrator 16.0.0, SVG Export Plug-In . SVG Version: 6.00 Build 0)  -->
<!DOCTYPE svg PUBLIC "-//W3C//DTD SVG 1.1//EN" "http://www.w3.org/Graphics/SVG/1.1/DTD/svg11.dtd" [
	<!ENTITY ns_extend "http://ns.adobe.com/Extensibility/1.0/">
	<!ENTITY ns_ai "http://ns.adobe.com/AdobeIllustrator/10.0/">
	<!ENTITY ns_graphs "http://ns.adobe.com/Graphs/1.0/">
	<!ENTITY ns_vars "http://ns.adobe.com/Variables/1.0/">
	<!ENTITY ns_imrep "http://ns.adobe.com/ImageReplacement/1.0/">
	<!ENTITY ns_sfw "http://ns.adobe.com/SaveForWeb/1.0/">
	<!ENTITY ns_custom "http://ns.adobe.com/GenericCustomNamespace/1.0/">
	<!ENTITY ns_adobe_xpath "http://ns.adobe.com/XPath/1.0/">
]>
<svg version="1.1" id="Layer_1" xmlns:x="&ns_extend;" xmlns:i="&ns_ai;" xmlns:graph="&ns_graphs;"
	 xmlns="http://www.w3.org/2000/svg" xmlns:xlink="http://www.w3.org/1999/xlink" x="0px" y="0px" width="135.917px"
	 height="128.4px" viewBox="0 0 135.917 128.4" enable-background="new 0 0 135.917 128.4" xml:space="preserve">
<metadata>
	<sfw  xmlns="&ns_sfw;">
		<slices></slices>
		<sliceSourceBounds  width="544.487" height="264.792" x="1009.302" y="2577.757" bottomLeftOrigin="true"></sliceSourceBounds>
	</sfw>
</metadata>
<path fill-rule="evenodd" clip-rule="evenodd" d="M71.072,99.684c-0.96,0.882-1.839,1.656-2.678,2.471
	c-1.218,1.183-1.971,1.229-3.182,0.06c-4.168-4.021-8.322-8.059-12.483-12.087c-2.093-2.027-4.186-4.055-6.288-6.072
	c-1.424-1.368-1.457-2.171-0.022-3.561c0.813-0.787,1.701-1.498,2.353-2.065c-1.555-1.692-2.85-3.149-4.215-4.54
	c-0.241-0.246-0.77-0.287-1.167-0.289c-4.266-0.02-8.531-0.011-12.797-0.014c-1.724,0-2.245-0.506-2.247-2.198
	c-0.004-5.651-0.004-11.304,0-16.956c0.001-1.607,0.57-2.177,2.18-2.179c4.301-0.006,8.603,0.021,12.903-0.031
	c0.526-0.006,1.175-0.275,1.553-0.642c11.748-11.417,23.47-22.86,35.191-34.303c0.649-0.634,1.336-1.083,2.277-0.669
	c0.902,0.395,1.016,1.179,1.016,2.041c-0.004,29.541-0.004,59.081,0.001,88.622c0,0.875-0.16,1.635-1.073,2.002
	c-0.904,0.363-1.558-0.057-2.182-0.668C77.144,105.596,74.062,102.6,71.072,99.684z M79.996,22.323
	c-0.344,0.319-0.548,0.502-0.745,0.693c-2.37,2.303-4.742,4.604-7.108,6.912c-8.295,8.086-16.592,16.171-24.865,24.28
	c-0.307,0.3-0.522,0.847-0.525,1.281c-0.036,4.977-0.037,9.954,0.001,14.931c0.003,0.426,0.251,0.954,0.56,1.256
	c9.772,9.576,19.566,19.129,29.358,28.684c1.053,1.027,2.123,2.037,3.324,3.188C79.996,76.394,79.996,49.466,79.996,22.323z
	 M31.802,70.098c3.902,0,7.679,0,11.434,0c0-4.844,0-9.614,0-14.358c-3.858,0-7.638,0-11.434,0
	C31.802,60.559,31.802,65.303,31.802,70.098z M66.74,98.905c0.605-0.633,1.112-1.162,1.667-1.744
	c-5.769-5.584-11.47-11.104-17.075-16.529c-0.681,0.559-1.25,1.026-1.874,1.538C55.273,87.8,60.957,93.305,66.74,98.905z"/>
<path fill-rule="evenodd" clip-rule="evenodd" d="M109.712,64.627c-2.7,0-5.4,0.004-8.101-0.002
	c-1.326-0.002-2.088-0.651-2.065-1.739c0.021-1.04,0.769-1.668,2.041-1.67c5.436-0.006,10.871-0.006,16.308,0
	c1.355,0.002,2.066,0.625,2.05,1.751c-0.017,1.069-0.722,1.655-2.025,1.658C115.184,64.631,112.448,64.627,109.712,64.627z"/>
<path fill-rule="evenodd" clip-rule="evenodd" d="M100.167,50.332c2.412,0,4.824-0.006,7.236,0.002
	c1.173,0.004,1.916,0.645,1.94,1.641c0.025,1.063-0.705,1.761-1.944,1.764c-4.859,0.014-9.72,0.014-14.579,0
	c-1.154-0.003-1.893-0.71-1.887-1.715c0.006-1.043,0.701-1.683,1.891-1.688C95.271,50.323,97.719,50.332,100.167,50.332z"/>
<path fill-rule="evenodd" clip-rule="evenodd" d="M100.181,72.13c2.377,0,4.753-0.005,7.13,0.003
	c1.274,0.005,2.011,0.62,2.031,1.665c0.021,1.094-0.718,1.74-2.06,1.742c-4.753,0.01-9.507,0.009-14.26,0
	c-1.364-0.002-2.102-0.628-2.09-1.72c0.013-1.093,0.746-1.685,2.118-1.688C95.428,72.126,97.804,72.13,100.181,72.13z"/>
<path fill-rule="evenodd" clip-rule="evenodd" fill="#FFFFFF" d="M79.996,22.323c0,27.143,0,54.071,0,81.225
	c-1.201-1.15-2.271-2.16-3.324-3.188c-9.792-9.555-19.586-19.107-29.358-28.684c-0.309-0.302-0.556-0.83-0.56-1.256
	c-0.038-4.977-0.038-9.954-0.001-14.931c0.003-0.434,0.219-0.981,0.525-1.281c8.273-8.109,16.57-16.194,24.865-24.28
	c2.366-2.308,4.738-4.609,7.108-6.912C79.448,22.825,79.652,22.642,79.996,22.323z"/>
<path fill-rule="evenodd" clip-rule="evenodd" fill="#FFFFFF" d="M31.802,70.098c0-4.795,0-9.539,0-14.358c3.796,0,7.576,0,11.434,0
	c0,4.744,0,9.515,0,14.358C39.481,70.098,35.704,70.098,31.802,70.098z"/>
<path fill-rule="evenodd" clip-rule="evenodd" fill="#FFFFFF" d="M66.74,98.905c-5.783-5.6-11.467-11.105-17.281-16.735
	c0.623-0.512,1.193-0.979,1.874-1.538c5.605,5.426,11.306,10.945,17.075,16.529C67.852,97.743,67.345,98.272,66.74,98.905z"/>
</svg>
