<?xml version="1.0" encoding="utf-8"?>
<!-- Generator: Adobe Illustrator 16.0.0, SVG Export Plug-In . SVG Version: 6.00 Build 0)  -->
<!DOCTYPE svg PUBLIC "-//W3C//DTD SVG 1.1//EN" "http://www.w3.org/Graphics/SVG/1.1/DTD/svg11.dtd">
<svg version="1.1" id="Layer_1" xmlns="http://www.w3.org/2000/svg" xmlns:xlink="http://www.w3.org/1999/xlink" x="0px" y="0px"
	 width="463.168px" height="101.705px" viewBox="0 0 463.168 101.705" enable-background="new 0 0 463.168 101.705"
	 xml:space="preserve">
<g>
	<g>
		<path d="M33.532,37.383c0-1.177,0.413-2.147,1.236-2.913c0.824-0.764,1.895-1.147,3.213-1.147c1.293,0,2.341,0.377,3.141,1.131
			c0.823,0.777,1.235,1.789,1.235,3.033c0,1.131-0.4,2.073-1.2,2.826c-0.822,0.776-1.906,1.164-3.247,1.164h-0.034
			c-1.296,0-2.344-0.388-3.143-1.164C33.934,39.535,33.532,38.559,33.532,37.383z M33.991,68.268V44.689h7.836v23.578H33.991z
			 M46.168,68.268h7.837V55.102c0-0.822,0.095-1.457,0.282-1.905c0.329-0.802,0.828-1.477,1.501-2.03
			c0.669-0.555,1.511-0.83,2.522-0.83c2.636,0,3.955,1.777,3.955,5.33v12.602H70.1v-13.52c0-3.483-0.822-6.125-2.471-7.924
			c-1.647-1.799-3.824-2.699-6.53-2.699c-3.034,0-5.399,1.307-7.094,3.918v0.07h-0.036l0.036-0.07v-3.354h-7.837
			c0.049,0.753,0.07,3.094,0.07,7.022C46.238,55.643,46.217,61.16,46.168,68.268z"/>
		<path fill-rule="evenodd" clip-rule="evenodd" d="M155.12,68.268c-2.495,0-4.985,0-7.489,0c0-6.481,0-12.953,0-19.45
			c-0.581-0.005-1.148-0.002-1.713-0.002c-0.567,0-1.137,0-1.703,0c-0.57,0-1.138,0-1.701,0c-0.041-0.123-0.057-6.735-0.024-7.081
			c0.005-0.004,0.009-0.008,0.012-0.01c0.004-0.004,0.008-0.01,0.014-0.012c0.003-0.002,0.011-0.004,0.016-0.004
			c0.016,0,0.031-0.002,0.047-0.002c1.669-0.003,3.334-0.003,5.004-0.005c0.006,0,0.01-0.004,0.039-0.008
			c0.002-0.056,0.004-0.118,0.004-0.183c0-1.747-0.004-3.494,0.003-5.244c0.002-0.515,0-1.03,0.057-1.54
			c0.384-3.431,2.108-5.878,5.333-7.208c0.894-0.37,1.832-0.577,2.793-0.701c1.007-0.13,2.02-0.141,3.031-0.102
			c0.762,0.03,1.523,0.064,2.287,0.111c0.479,0.027,0.959,0.086,1.438,0.129c0.042,0.006,0.085,0.02,0.144,0.033
			c-0.057,2.2-0.109,4.398-0.166,6.622c-0.082,0-0.148,0-0.216,0c-1.431-0.004-2.86-0.013-4.288-0.015
			c-0.396-0.002-0.791,0.019-1.179,0.107c-0.063,0.014-0.126,0.029-0.188,0.048c-0.793,0.219-1.254,0.745-1.422,1.544
			c-0.088,0.414-0.113,0.838-0.115,1.259c-0.002,1.663,0,3.323,0,4.986c0,0.048,0.004,0.097,0.009,0.162c2.532,0,5.057,0,7.604,0
			c-0.115,2.381-0.225,4.739-0.337,7.108c-2.429,0-4.837,0-7.234,0c-0.015,0.014-0.02,0.016-0.024,0.021
			c-0.003,0.002-0.007,0.008-0.009,0.014c-0.002,0.004-0.004,0.011-0.004,0.011c-0.002,0.01-0.004,0.014-0.004,0.014
			c-0.001,0.017-0.001,0.028-0.001,0.04v0.015c0,0.005,0,0.011,0,0.017c0,0.016,0,0.03,0,0.049c0,6.388,0,12.775,0,19.164
			c0,0.006-0.001,0.013-0.001,0.013c0,0.017-0.001,0.027-0.001,0.038c0,0-0.001,0.01-0.001,0.016
			c-0.002,0.006-0.003,0.012-0.005,0.016C155.129,68.238,155.125,68.247,155.12,68.268z"/>
		<g>
			<g>
				<path d="M222.749,45.756h6.626c4.021,0,6.568,2.432,6.568,5.904c0,1.359-0.262,2.719-2.026,3.904
					c2.314,0.492,4.08,2.488,4.08,5.557c0,5.004-2.517,6.914-7.898,6.914h-7.35V45.756z M226.712,64.419h3.443
					c3.095,0,3.558-1.1,3.558-3.212c0-2.199-0.722-3.213-3.615-3.213h-3.386V64.419z M226.741,49.171v5.149h2.663
					c1.647,0,2.43-1.186,2.43-2.604c0-1.128-0.491-2.545-2.459-2.545H226.741z"/>
				<path d="M240.916,45.727h3.964v16.002c0,1.881,0.348,2.488,1.997,2.488v3.818c-4.601,0-5.961-1.36-5.961-6.249V45.727z"/>
				<path d="M249.19,61.67v-4.108c0-4.485,2.141-6.654,6.625-6.654c4.485,0,6.626,2.054,6.626,6.654v4.108
					c0,4.601-2.141,6.654-6.626,6.654C251.331,68.324,249.19,66.271,249.19,61.67z M258.449,61.467v-3.703
					c0-2.113-0.551-3.328-2.634-3.328s-2.632,1.215-2.632,3.328v3.703c0,2.111,0.549,3.327,2.632,3.327
					S258.449,63.578,258.449,61.467z"/>
				<path d="M265.332,61.729v-4.254c0-4.745,2.199-6.598,5.557-6.598c1.937,0,3.21,0.752,3.875,1.967l0.291-1.881h3.269v17.506
					c0,4.428-2.314,6.54-6.451,6.54c-4.167,0-6.164-1.794-6.164-5.411h3.79c0,1.332,0.782,2.025,2.374,2.025
					c2.082,0,2.748-1.07,2.748-3.181v-2.058c-0.608,0.928-1.62,1.736-3.617,1.736C267.444,68.121,265.332,66.125,265.332,61.729z
					 M274.417,61.148v-3.327c0-1.968-0.636-3.413-2.604-3.413c-1.563,0-2.518,0.811-2.518,3.268v3.56
					c0,2.401,0.81,3.386,2.459,3.386C273.781,64.621,274.417,63.319,274.417,61.148z"/>
				<path d="M285.988,65.953c0,2.893-4.484,2.92-4.484,0C281.503,63.003,285.988,63.029,285.988,65.953z M285.612,62.363h-3.646
					V45.756h3.935L285.612,62.363z"/>
			</g>
		</g>
		<g>
			<g>
				<path d="M328.209,68.17h-3.877l-6.539-14.119l0.348,8.448v5.671h-3.965V45.921h3.965l6.539,14.669l-0.434-9.402v-5.267h3.963
					V68.17z"/>
				<path d="M344.641,62.934c0,3.587-2.141,5.295-6.625,5.295c-4.486,0-6.627-2.055-6.627-6.654v-3.877
					c0-4.283,2.141-6.653,6.627-6.653c4.484,0,6.625,2.053,6.625,6.653v3.384h-9.258v0.435c0,2.75,1.07,3.269,2.689,3.269
					c1.881,0,2.662-0.663,2.662-1.851H344.641z M335.383,57.813h5.408c0-2.141-0.404-3.328-2.66-3.328
					C335.787,54.484,335.383,55.758,335.383,57.813z"/>
				<path d="M358.902,51.1l1.303,5.469c0.549,2.314,0.953,4.57,1.273,6.828c0.287-2.171,0.693-4.86,1.271-7.176l1.475-5.121h4.08
					L363.359,68.2h-3.793l-1.012-3.733l-1.188-6.018l-1.184,6.076L355.17,68.2h-3.762L346.402,51.1h4.109l1.504,5.121
					c0.578,2.315,0.955,5.005,1.244,7.176c0.232-1.563,0.289-3.299,1.129-6.887c0.346-1.445,0.953-3.269,1.563-5.41H358.902z"/>
				<path d="M378.66,56.452c0-1.302-1.012-1.881-2.285-1.881c-1.533,0-2.461,0.608-2.461,1.794c0,1.881,1.967,1.619,4.254,1.881
					c2.285,0.26,4.572,1.619,4.572,4.659c0,3.731-2.922,5.351-6.598,5.351c-4.051,0-6.48-2.053-6.48-5.351h4.021
					c0.088,1.185,0.723,1.879,2.633,1.879c1.592,0,2.402-0.896,2.402-1.735c0-1.447-1.881-1.475-3.936-1.734
					c-2.488-0.32-4.891-1.391-4.891-4.746c0-3.848,2.75-5.556,6.453-5.556c4.195,0,6.191,2.374,6.191,5.439H378.66z"/>
				<path d="M385.658,45.863h3.965v16c0,1.881,0.346,2.488,1.996,2.488v3.818c-4.602,0-5.961-1.359-5.961-6.248V45.863z"/>
				<path d="M407.271,62.934c0,3.587-2.143,5.295-6.627,5.295c-4.482,0-6.625-2.055-6.625-6.654v-3.877
					c0-4.283,2.143-6.653,6.625-6.653c4.484,0,6.627,2.053,6.627,6.653v3.384h-9.26v0.435c0,2.75,1.07,3.269,2.691,3.269
					c1.881,0,2.662-0.663,2.662-1.851H407.271z M398.012,57.813h5.412c0-2.141-0.406-3.328-2.662-3.328
					C398.418,54.484,398.012,55.758,398.012,57.813z"/>
				<path d="M410.539,48.148l3.963-0.434v3.329h2.893v3.614h-2.893v7.205c0,1.881,0.289,3.154,2.951,2.834v3.473
					c-5.033,0.551-6.914-1.186-6.914-6.248V48.148z"/>
				<path d="M420.201,48.148l3.963-0.434v3.329h2.893v3.614h-2.893v7.205c0,1.881,0.289,3.154,2.951,2.834v3.473
					c-5.033,0.551-6.914-1.186-6.914-6.248V48.148z"/>
				<path d="M442.797,62.934c0,3.587-2.141,5.295-6.627,5.295c-4.484,0-6.625-2.055-6.625-6.654v-3.877
					c0-4.283,2.141-6.653,6.625-6.653c4.486,0,6.627,2.053,6.627,6.653v3.384h-9.26v0.435c0,2.75,1.072,3.269,2.691,3.269
					c1.881,0,2.662-0.663,2.662-1.851H442.797z M433.537,57.813h5.41c0-2.141-0.404-3.328-2.66-3.328
					C433.943,54.484,433.537,55.758,433.537,57.813z"/>
				<path d="M454.627,55.209c-2.574-0.348-4.6,0.666-4.6,3.211v9.78h-3.963V51.1h3.645l0.172,1.794
					c0.697-1.187,2.635-2.228,4.746-1.881V55.209z"/>
			</g>
		</g>
	</g>
	<rect fill="none" stroke="#000000" stroke-miterlimit="10" width="101.707" height="101.705"/>
	<rect x="101.759" fill="none" stroke="#000000" stroke-miterlimit="10" width="101.707" height="101.705"/>
	<rect x="203.514" fill="none" stroke="#000000" stroke-miterlimit="10" width="101.708" height="101.705"/>
	<rect x="305.633" fill="none" stroke="#000000" stroke-miterlimit="10" width="157.535" height="101.705"/>
</g>
</svg>
