<?xml version="1.0" encoding="utf-8"?>
<!-- Generator: Adobe Illustrator 21.1.0, SVG Export Plug-In . SVG Version: 6.00 Build 0)  -->
<svg version="1.1" id="Layer_1" xmlns="http://www.w3.org/2000/svg" xmlns:xlink="http://www.w3.org/1999/xlink" x="0px" y="0px"
	 viewBox="0 0 135.9 128.4" style="enable-background:new 0 0 135.9 128.4;" xml:space="preserve">
<style type="text/css">
	.st0{stroke:#000000;stroke-width:2;stroke-miterlimit:10;}
	.st1{fill:#FFFFFF;stroke:#000000;stroke-width:2;stroke-miterlimit:10;}
	.st2{fill:#FFFFFF;stroke:#000000;stroke-miterlimit:10;}
</style>
<path class="st0" d="M71.1,99.7c-1,0.9-1.8,1.7-2.7,2.5c-1.2,1.2-2,1.2-3.2,0.1c-4.2-4-8.3-8.1-12.5-12.1c-2.1-2-4.2-4.1-6.3-6.1
	c-1.4-1.4-1.5-2.2,0-3.6c0.8-0.8,1.7-1.5,2.4-2.1c-1.6-1.7-2.8-3.1-4.2-4.5c-0.2-0.2-0.8-0.3-1.2-0.3c-4.3,0-8.5,0-12.8,0
	c-1.7,0-2.2-0.5-2.2-2.2c0-5.7,0-11.3,0-17c0-1.6,0.6-2.2,2.2-2.2c4.3,0,8.6,0,12.9,0c0.5,0,1.2-0.3,1.6-0.6
	c11.7-11.4,23.5-22.9,35.2-34.3c0.6-0.6,1.3-1.1,2.3-0.7c0.9,0.4,1,1.2,1,2c0,29.5,0,59.1,0,88.6c0,0.9-0.2,1.6-1.1,2
	c-0.9,0.4-1.6-0.1-2.2-0.7C77.1,105.6,74.1,102.6,71.1,99.7z M80,22.3c-0.3,0.3-0.5,0.5-0.7,0.7c-2.4,2.3-4.7,4.6-7.1,6.9
	C63.8,38,55.6,46.1,47.3,54.2c-0.3,0.3-0.5,0.8-0.5,1.3c0,5,0,10,0,14.9c0,0.4,0.3,1,0.6,1.3c9.8,9.6,19.6,19.1,29.4,28.7
	c1.1,1,2.1,2,3.3,3.2C80,76.4,80,49.5,80,22.3z M31.8,70.1c3.9,0,7.7,0,11.4,0c0-4.8,0-9.6,0-14.4c-3.9,0-7.6,0-11.4,0
	C31.8,60.6,31.8,65.3,31.8,70.1z M66.7,98.9c0.6-0.6,1.1-1.2,1.7-1.7c-5.8-5.6-11.5-11.1-17.1-16.5c-0.7,0.6-1.3,1-1.9,1.5
	C55.3,87.8,61,93.3,66.7,98.9z"/>
<path class="st0" d="M109.7,64.6c-2.7,0-5.4,0-8.1,0c-1.3,0-2.1-0.7-2.1-1.7c0-1,0.8-1.7,2-1.7c5.4,0,10.9,0,16.3,0
	c1.4,0,2.1,0.6,2.1,1.8c0,1.1-0.7,1.7-2,1.7C115.2,64.6,112.4,64.6,109.7,64.6z"/>
<path class="st0" d="M100.2,50.3c2.4,0,4.8,0,7.2,0c1.2,0,1.9,0.6,1.9,1.6c0,1.1-0.7,1.8-1.9,1.8c-4.9,0-9.7,0-14.6,0
	c-1.2,0-1.9-0.7-1.9-1.7c0-1,0.7-1.7,1.9-1.7C95.3,50.3,97.7,50.3,100.2,50.3z"/>
<path class="st0" d="M100.2,72.1c2.4,0,4.8,0,7.1,0c1.3,0,2,0.6,2,1.7c0,1.1-0.7,1.7-2.1,1.7c-4.8,0-9.5,0-14.3,0
	c-1.4,0-2.1-0.6-2.1-1.7c0-1.1,0.7-1.7,2.1-1.7C95.4,72.1,97.8,72.1,100.2,72.1z"/>
<path class="st1" d="M80,22.3c0,27.1,0,54.1,0,81.2c-1.2-1.2-2.3-2.2-3.3-3.2c-9.8-9.6-19.6-19.1-29.4-28.7
	c-0.3-0.3-0.6-0.8-0.6-1.3c0-5,0-10,0-14.9c0-0.4,0.2-1,0.5-1.3c8.3-8.1,16.6-16.2,24.9-24.3c2.4-2.3,4.7-4.6,7.1-6.9
	C79.4,22.8,79.7,22.6,80,22.3z"/>
<path class="st1" d="M31.8,70.1c0-4.8,0-9.5,0-14.4c3.8,0,7.6,0,11.4,0c0,4.7,0,9.5,0,14.4C39.5,70.1,35.7,70.1,31.8,70.1z"/>
<path class="st2" d="M66.5,100.5c-6.6-6.4-13.1-12.8-19.8-19.2c0.7-0.6,1.4-1.1,2.1-1.8c6.4,6.2,12.9,12.6,19.5,19
	C67.8,99.2,67.2,99.8,66.5,100.5z"/>
</svg>
