<?xml version="1.0" encoding="utf-8"?>
<!-- Generator: Adobe Illustrator 16.0.0, SVG Export Plug-In . SVG Version: 6.00 Build 0)  -->
<!DOCTYPE svg PUBLIC "-//W3C//DTD SVG 1.1//EN" "http://www.w3.org/Graphics/SVG/1.1/DTD/svg11.dtd" [
	<!ENTITY ns_extend "http://ns.adobe.com/Extensibility/1.0/">
	<!ENTITY ns_ai "http://ns.adobe.com/AdobeIllustrator/10.0/">
	<!ENTITY ns_graphs "http://ns.adobe.com/Graphs/1.0/">
	<!ENTITY ns_vars "http://ns.adobe.com/Variables/1.0/">
	<!ENTITY ns_imrep "http://ns.adobe.com/ImageReplacement/1.0/">
	<!ENTITY ns_sfw "http://ns.adobe.com/SaveForWeb/1.0/">
	<!ENTITY ns_custom "http://ns.adobe.com/GenericCustomNamespace/1.0/">
	<!ENTITY ns_adobe_xpath "http://ns.adobe.com/XPath/1.0/">
]>
<svg version="1.1" id="Layer_1" xmlns:x="&ns_extend;" xmlns:i="&ns_ai;" xmlns:graph="&ns_graphs;"
	 xmlns="http://www.w3.org/2000/svg" xmlns:xlink="http://www.w3.org/1999/xlink" x="0px" y="0px" width="135.917px"
	 height="128.4px" viewBox="0 0 135.917 128.4" enable-background="new 0 0 135.917 128.4" xml:space="preserve">
<metadata>
	<sfw  xmlns="&ns_sfw;">
		<slices></slices>
		<sliceSourceBounds  width="544.487" height="200.298" x="1009.302" y="2642.251" bottomLeftOrigin="true"></sliceSourceBounds>
	</sfw>
</metadata>
<path fill-rule="evenodd" clip-rule="evenodd" d="M73.222,80.664c-3.283,0-6.401,0-9.673,0c0,0.442,0,0.854,0,1.264
	c0,9.919,0,19.839,0,29.758c0,2.339-0.414,2.763-2.705,2.763c-8.213,0-16.425,0.001-24.638-0.001
	c-2.021-0.001-2.491-0.481-2.491-2.534c0-21.047,0.006-42.094-0.018-63.142c-0.001-1.084,0.342-1.863,1.105-2.624
	c10.603-10.565,21.18-21.155,31.764-31.739c1.396-1.396,2.073-1.397,3.473,0.001c10.739,10.73,21.485,21.454,32.188,32.219
	c0.426,0.428,0.625,1.259,0.627,1.904c0.033,17.421,0.026,34.842,0.026,52.263c0,3.769,0.005,7.537-0.003,11.307
	c-0.003,1.828-0.523,2.343-2.354,2.344c-8.319,0.004-16.639,0.003-24.958,0c-1.827,0-2.343-0.521-2.343-2.349
	c-0.001-10.026,0-20.052,0-30.078C73.222,81.599,73.222,81.179,73.222,80.664z M37.213,67.448c0,14.552,0,29.035,0,43.484
	c7.67,0,15.254,0,22.922,0c0-0.519,0-0.939,0-1.361c0-10.098-0.001-20.194,0.001-30.291c0-1.521,0.534-2.063,2.033-2.063
	c4.018-0.005,8.035-0.002,12.052-0.001c1.977,0,2.413,0.442,2.413,2.457c0.001,9.99,0,19.98,0,29.971c0,0.417,0,0.834,0,1.3
	c7.667,0,15.209,0,22.777,0c0-14.547,0-29.005,0-43.53c-2.073,0.607-3.909,0.229-5.488-1.1c-2.688,1.867-4.465,1.866-7.344,0.028
	c-2.424,1.852-4.87,1.839-7.283-0.025c-2.469,1.896-4.914,1.845-7.315,0.003c-2.495,1.923-4.943,1.804-7.317,0.01
	c-2.493,1.887-4.907,1.806-6.974,0.235c-1.499,0.435-2.733,1.081-3.962,1.07c-1.265-0.012-2.523-0.663-3.967-1.089
	c-2.332,1.631-4.149,1.622-6.997-0.206C40.459,67.798,39.765,67.938,37.213,67.448z M96.564,46.224
	c-9.433-9.437-18.93-18.938-28.297-28.309c-9.378,9.379-18.86,18.86-28.308,28.309C58.799,46.224,77.759,46.224,96.564,46.224z
	 M37.15,49.744c0,4.244-0.03,8.43,0.02,12.616c0.013,1.103,0.965,1.929,1.924,1.921c1.003-0.009,1.723-0.734,1.908-1.925
	c0.205-1.316,0.711-1.83,1.793-1.818c1.016,0.01,1.48,0.497,1.702,1.783c0.21,1.222,0.898,1.934,1.892,1.958
	c1.019,0.025,1.807-0.753,2.005-1.978c0.206-1.275,0.684-1.77,1.702-1.764c1.008,0.006,1.547,0.563,1.72,1.775
	c0.169,1.185,0.887,1.939,1.873,1.969c1.008,0.03,1.826-0.78,1.995-1.977c0.175-1.244,0.682-1.77,1.705-1.768
	c1.011,0.001,1.557,0.563,1.716,1.766c0.154,1.167,0.888,1.938,1.876,1.973c1.01,0.036,1.819-0.762,1.99-1.965
	c0.177-1.245,0.681-1.767,1.709-1.773c1.018-0.007,1.532,0.52,1.716,1.753c0.182,1.221,0.967,2.009,1.986,1.991
	c0.969-0.018,1.686-0.76,1.893-1.962c0.224-1.3,0.679-1.776,1.704-1.782c1.03-0.006,1.516,0.482,1.739,1.749
	c0.23,1.301,0.925,2.005,1.964,1.991c0.993-0.013,1.729-0.794,1.937-2.056c0.196-1.193,0.675-1.676,1.665-1.684
	c1.026-0.008,1.569,0.53,1.758,1.744c0.199,1.281,0.908,2.01,1.942,1.997c0.989-0.011,1.753-0.825,1.929-2.055
	c0.167-1.163,0.675-1.677,1.664-1.687c1.029-0.01,1.591,0.545,1.757,1.736c0.171,1.237,0.924,2.014,1.942,2.006
	c0.998-0.008,1.73-0.788,1.922-2.044c0.176-1.16,0.689-1.681,1.673-1.698c1.036-0.019,1.567,0.506,1.747,1.727
	c0.188,1.278,1.011,2.081,2.059,2.01c1.07-0.073,1.781-0.947,1.786-2.243c0.01-2.596,0.003-5.191,0.003-7.788
	c0-1.483,0-2.966,0-4.501C78.669,49.744,57.985,49.744,37.15,49.744z"/>
<path fill-rule="evenodd" clip-rule="evenodd" d="M31.631,25.155c-2.095,0-4.19,0.005-6.286-0.002
	c-1.238-0.005-1.985-0.67-1.969-1.726c0.015-1.003,0.749-1.675,1.93-1.68c4.226-0.014,8.452-0.016,12.678,0
	c1.192,0.004,1.908,0.675,1.916,1.694c0.007,1.056-0.735,1.707-1.982,1.71C35.821,25.16,33.726,25.155,31.631,25.155z"/>
<path fill-rule="evenodd" clip-rule="evenodd" d="M25.762,17.686c-1.597,0-3.195,0.012-4.792-0.003
	c-1.168-0.011-1.917-0.677-1.934-1.675c-0.017-0.996,0.739-1.722,1.89-1.728c3.301-0.017,6.603-0.017,9.904,0
	c1.177,0.006,1.865,0.687,1.848,1.734c-0.018,1.038-0.711,1.659-1.911,1.669C29.099,17.697,27.431,17.686,25.762,17.686z"/>
<path fill-rule="evenodd" clip-rule="evenodd" d="M40.164,17.686c-0.745,0-1.491,0.023-2.235-0.006
	c-1.026-0.04-1.675-0.702-1.687-1.669c-0.011-0.976,0.618-1.696,1.632-1.723c1.56-0.042,3.123-0.043,4.683,0.001
	c1.013,0.029,1.654,0.759,1.642,1.721c-0.012,0.964-0.659,1.604-1.693,1.673c-0.071,0.005-0.142,0.002-0.213,0.002
	C41.583,17.686,40.873,17.686,40.164,17.686z"/>
<path fill-rule="evenodd" clip-rule="evenodd" fill="#FFFFFF" d="M37.213,67.448c2.552,0.49,3.246,0.35,5.551-1.108
	c2.848,1.828,4.665,1.837,6.997,0.206c1.443,0.426,2.702,1.077,3.967,1.089c1.229,0.011,2.464-0.636,3.962-1.07
	c2.067,1.57,4.481,1.651,6.974-0.235c2.374,1.794,4.822,1.913,7.317-0.01c2.401,1.842,4.847,1.894,7.315-0.003
	c2.413,1.864,4.859,1.877,7.283,0.025c2.879,1.838,4.655,1.839,7.344-0.028c1.579,1.329,3.415,1.707,5.488,1.1
	c0,14.525,0,28.983,0,43.53c-7.568,0-15.11,0-22.777,0c0-0.466,0-0.883,0-1.3c0-9.99,0.001-19.98,0-29.971
	c0-2.015-0.437-2.457-2.413-2.457c-4.018-0.001-8.035-0.004-12.052,0.001c-1.499,0.001-2.033,0.542-2.033,2.063
	c-0.003,10.097-0.001,20.193-0.001,30.291c0,0.422,0,0.843,0,1.361c-7.668,0-15.252,0-22.922,0
	C37.213,96.483,37.213,82,37.213,67.448z M56.757,91.085c0-4.441,0.001-8.882-0.001-13.323c-0.001-1.671-0.548-2.214-2.247-2.216
	c-3.943-0.006-7.887-0.005-11.831-0.001c-1.659,0.002-2.238,0.569-2.24,2.247c-0.007,8.847-0.007,17.693,0,26.539
	c0.001,1.633,0.563,2.21,2.163,2.216c4.014,0.014,8.029,0.015,12.043-0.001c1.558-0.006,2.108-0.586,2.11-2.139
	C56.759,99.966,56.757,95.525,56.757,91.085z M79.978,91.038c0,4.441-0.002,8.882,0.001,13.322c0.001,1.642,0.517,2.181,2.16,2.187
	c3.979,0.014,7.958,0.013,11.937,0.001c1.631-0.005,2.187-0.566,2.188-2.173c0.004-8.882,0.004-17.764,0-26.646
	c-0.001-1.614-0.564-2.181-2.174-2.184c-3.979-0.006-7.958-0.006-11.937,0c-1.63,0.003-2.172,0.548-2.174,2.17
	C79.975,82.156,79.978,86.596,79.978,91.038z"/>
<path fill-rule="evenodd" clip-rule="evenodd" fill="#FFFFFF" d="M96.564,46.224c-18.805,0-37.765,0-56.605,0
	c9.448-9.448,18.93-18.93,28.308-28.309C77.634,27.286,87.131,36.788,96.564,46.224z"/>
<path fill-rule="evenodd" clip-rule="evenodd" fill="#FFFFFF" d="M37.15,49.744c20.835,0,41.52,0,62.315,0c0,1.535,0,3.018,0,4.501
	c0,2.596,0.007,5.192-0.003,7.788c-0.005,1.296-0.716,2.17-1.786,2.243c-1.048,0.071-1.87-0.732-2.059-2.01
	c-0.18-1.221-0.711-1.745-1.747-1.727c-0.983,0.018-1.497,0.539-1.673,1.698c-0.191,1.256-0.924,2.036-1.922,2.044
	c-1.019,0.008-1.771-0.77-1.942-2.006c-0.166-1.191-0.728-1.746-1.757-1.736c-0.989,0.009-1.497,0.524-1.664,1.687
	c-0.176,1.23-0.939,2.043-1.929,2.055c-1.034,0.013-1.743-0.716-1.942-1.997c-0.188-1.214-0.731-1.752-1.758-1.744
	c-0.99,0.008-1.469,0.491-1.665,1.684c-0.208,1.262-0.943,2.043-1.937,2.056c-1.039,0.014-1.733-0.69-1.964-1.991
	c-0.224-1.267-0.709-1.755-1.739-1.749c-1.025,0.006-1.48,0.482-1.704,1.782c-0.207,1.202-0.924,1.944-1.893,1.962
	c-1.019,0.019-1.804-0.77-1.986-1.991c-0.184-1.234-0.698-1.76-1.716-1.753c-1.028,0.006-1.532,0.528-1.709,1.773
	c-0.171,1.203-0.98,2.001-1.99,1.965c-0.988-0.035-1.722-0.807-1.876-1.973c-0.159-1.203-0.705-1.764-1.716-1.766
	c-1.023-0.001-1.53,0.524-1.705,1.768c-0.168,1.197-0.986,2.007-1.995,1.977c-0.986-0.03-1.704-0.785-1.873-1.969
	c-0.173-1.213-0.712-1.77-1.72-1.775c-1.018-0.006-1.496,0.488-1.702,1.764c-0.198,1.225-0.986,2.002-2.005,1.978
	c-0.994-0.024-1.682-0.736-1.892-1.958c-0.221-1.286-0.686-1.773-1.702-1.783c-1.083-0.011-1.588,0.502-1.793,1.818
	c-0.186,1.19-0.905,1.916-1.908,1.925c-0.959,0.008-1.911-0.818-1.924-1.921C37.12,58.175,37.15,53.988,37.15,49.744z"/>
<path fill-rule="evenodd" clip-rule="evenodd" d="M56.757,91.085c0,4.44,0.002,8.881-0.001,13.322
	c-0.001,1.553-0.552,2.133-2.11,2.139c-4.015,0.016-8.029,0.015-12.043,0.001c-1.6-0.006-2.162-0.583-2.163-2.216
	c-0.008-8.846-0.007-17.692,0-26.539c0.001-1.678,0.581-2.245,2.24-2.247c3.944-0.004,7.887-0.005,11.831,0.001
	c1.699,0.002,2.246,0.545,2.247,2.216C56.759,82.203,56.757,86.643,56.757,91.085z M43.952,79.019c0,8.059,0,16.055,0,24.037
	c3.173,0,6.243,0,9.324,0c0-8.056,0-16.03,0-24.037C50.136,79.019,47.063,79.019,43.952,79.019z"/>
<path fill-rule="evenodd" clip-rule="evenodd" d="M79.978,91.038c0-4.441-0.003-8.882,0.001-13.322
	c0.002-1.622,0.544-2.167,2.174-2.17c3.979-0.006,7.958-0.006,11.937,0c1.609,0.003,2.173,0.569,2.174,2.184
	c0.004,8.882,0.004,17.764,0,26.646c-0.001,1.606-0.557,2.168-2.188,2.173c-3.979,0.012-7.958,0.013-11.937-0.001
	c-1.644-0.006-2.159-0.545-2.16-2.187C79.976,99.92,79.978,95.479,79.978,91.038z M92.785,103.083c0-8.059,0-16.037,0-24.061
	c-3.14,0-6.212,0-9.327,0c0,8.045,0,16.025,0,24.061C86.571,103.083,89.618,103.083,92.785,103.083z"/>
<path fill-rule="evenodd" clip-rule="evenodd" fill="#FFFFFF" d="M43.952,79.019c3.111,0,6.184,0,9.324,0c0,8.007,0,15.981,0,24.037
	c-3.081,0-6.151,0-9.324,0C43.952,95.074,43.952,87.078,43.952,79.019z"/>
<path fill-rule="evenodd" clip-rule="evenodd" fill="#FFFFFF" d="M92.785,103.083c-3.167,0-6.214,0-9.327,0
	c0-8.035,0-16.016,0-24.061c3.115,0,6.188,0,9.327,0C92.785,87.046,92.785,95.024,92.785,103.083z"/>
</svg>
