<?xml version="1.0" encoding="utf-8"?>
<!-- Generator: Adobe Illustrator 16.0.0, SVG Export Plug-In . SVG Version: 6.00 Build 0)  -->
<!DOCTYPE svg PUBLIC "-//W3C//DTD SVG 1.0//EN" "http://www.w3.org/TR/2001/REC-SVG-20010904/DTD/svg10.dtd" [
	<!ENTITY ns_extend "http://ns.adobe.com/Extensibility/1.0/">
	<!ENTITY ns_ai "http://ns.adobe.com/AdobeIllustrator/10.0/">
	<!ENTITY ns_graphs "http://ns.adobe.com/Graphs/1.0/">
	<!ENTITY ns_vars "http://ns.adobe.com/Variables/1.0/">
	<!ENTITY ns_imrep "http://ns.adobe.com/ImageReplacement/1.0/">
	<!ENTITY ns_sfw "http://ns.adobe.com/SaveForWeb/1.0/">
	<!ENTITY ns_custom "http://ns.adobe.com/GenericCustomNamespace/1.0/">
	<!ENTITY ns_adobe_xpath "http://ns.adobe.com/XPath/1.0/">
]>
<svg version="1.0" id="Layer_1" xmlns:x="&ns_extend;" xmlns:i="&ns_ai;" xmlns:graph="&ns_graphs;"
	 xmlns="http://www.w3.org/2000/svg" xmlns:xlink="http://www.w3.org/1999/xlink" x="0px" y="0px" width="135.917px"
	 height="128.4px" viewBox="0 0 135.917 128.4" enable-background="new 0 0 135.917 128.4" xml:space="preserve">
<metadata>
	<sfw  xmlns="&ns_sfw;">
		<slices></slices>
		<sliceSourceBounds  width="83.845" height="101.087" y="0.25" x="0.577" bottomLeftOrigin="true"></sliceSourceBounds>
	</sfw>
</metadata>
<path d="M73.222,80.664c-3.283,0-6.401,0-9.673,0c0,0.442,0,0.854,0,1.265c0,9.919,0,19.839,0,29.758
	c0,2.339-0.414,2.763-2.705,2.763c-8.213,0-16.425,0.001-24.638-0.001c-2.021-0.001-2.491-0.481-2.491-2.534
	c0-21.047,0.006-42.094-0.018-63.142c-0.001-1.084,0.342-1.863,1.105-2.624c10.603-10.565,21.18-21.155,31.764-31.739
	c1.396-1.396,2.073-1.396,3.473,0.001c10.739,10.73,21.485,21.454,32.188,32.219c0.426,0.429,0.625,1.26,0.627,1.904
	c0.033,17.421,0.026,34.842,0.026,52.263c0,3.77,0.004,7.537-0.004,11.308c-0.002,1.828-0.522,2.343-2.354,2.344
	c-8.318,0.004-16.639,0.003-24.958,0c-1.827,0-2.343-0.521-2.343-2.349c-0.001-10.026,0-20.053,0-30.078
	C73.222,81.599,73.222,81.179,73.222,80.664z M37.213,67.448c0,14.552,0,29.035,0,43.484c7.67,0,15.254,0,22.922,0
	c0-0.52,0-0.939,0-1.361c0-10.098-0.001-20.194,0.001-30.291c0-1.521,0.534-2.063,2.033-2.063c4.018-0.005,8.036-0.002,12.052-0.001
	c1.978,0,2.413,0.442,2.413,2.457c0,9.99,0,19.98,0,29.972c0,0.417,0,0.834,0,1.3c7.666,0,15.209,0,22.777,0
	c0-14.547,0-29.005,0-43.53c-2.074,0.607-3.91,0.229-5.488-1.1c-2.688,1.867-4.465,1.866-7.344,0.027
	c-2.425,1.853-4.871,1.84-7.283-0.024c-2.469,1.896-4.914,1.845-7.315,0.003c-2.495,1.923-4.943,1.804-7.317,0.01
	c-2.493,1.887-4.907,1.806-6.974,0.235c-1.499,0.435-2.733,1.081-3.962,1.069c-1.265-0.012-2.523-0.662-3.967-1.089
	c-2.332,1.631-4.149,1.622-6.997-0.206C40.459,67.798,39.765,67.938,37.213,67.448z M96.564,46.224
	c-9.434-9.438-18.93-18.938-28.297-28.31c-9.378,9.379-18.86,18.86-28.308,28.31C58.799,46.224,77.759,46.224,96.564,46.224z
	 M37.15,49.744c0,4.244-0.03,8.43,0.02,12.616c0.013,1.103,0.965,1.929,1.924,1.921c1.003-0.009,1.723-0.734,1.908-1.925
	c0.205-1.316,0.711-1.83,1.793-1.818c1.016,0.01,1.48,0.497,1.702,1.783c0.21,1.222,0.898,1.934,1.892,1.958
	c1.019,0.025,1.807-0.753,2.005-1.979c0.206-1.274,0.684-1.77,1.702-1.764c1.008,0.006,1.547,0.563,1.72,1.775
	c0.169,1.185,0.887,1.938,1.873,1.969c1.008,0.03,1.826-0.78,1.995-1.977c0.175-1.244,0.682-1.771,1.705-1.769
	c1.011,0.001,1.557,0.563,1.716,1.766c0.154,1.167,0.888,1.938,1.876,1.974c1.01,0.036,1.819-0.762,1.99-1.965
	c0.177-1.245,0.681-1.768,1.709-1.773c1.018-0.007,1.532,0.521,1.716,1.753c0.182,1.221,0.967,2.009,1.986,1.991
	c0.969-0.018,1.686-0.76,1.893-1.962c0.225-1.3,0.68-1.776,1.704-1.782c1.03-0.006,1.517,0.482,1.739,1.749
	c0.23,1.301,0.925,2.005,1.964,1.991c0.993-0.013,1.729-0.794,1.937-2.056c0.196-1.193,0.676-1.677,1.666-1.685
	c1.025-0.008,1.568,0.53,1.758,1.744c0.199,1.281,0.908,2.01,1.941,1.997c0.989-0.011,1.753-0.825,1.93-2.055
	c0.166-1.163,0.674-1.678,1.664-1.688c1.028-0.01,1.59,0.545,1.756,1.736c0.172,1.236,0.924,2.014,1.942,2.006
	c0.998-0.008,1.729-0.788,1.923-2.044c0.176-1.16,0.688-1.682,1.672-1.698c1.037-0.019,1.567,0.506,1.748,1.728
	c0.188,1.277,1.01,2.08,2.059,2.01c1.07-0.073,1.781-0.947,1.785-2.243c0.011-2.596,0.004-5.191,0.004-7.788
	c0-1.483,0-2.966,0-4.501C78.669,49.744,57.985,49.744,37.15,49.744z"/>
<path d="M31.631,25.155c-2.095,0-4.19,0.005-6.286-0.002c-1.238-0.005-1.985-0.67-1.969-1.727c0.015-1.003,0.749-1.675,1.93-1.68
	c4.226-0.014,8.452-0.016,12.678,0c1.192,0.004,1.908,0.675,1.916,1.694c0.007,1.056-0.735,1.707-1.982,1.71
	C35.821,25.16,33.726,25.155,31.631,25.155z"/>
<path d="M25.762,17.686c-1.597,0-3.195,0.012-4.792-0.003c-1.168-0.012-1.917-0.678-1.934-1.676
	c-0.017-0.995,0.739-1.722,1.89-1.728c3.301-0.017,6.603-0.017,9.904,0c1.177,0.006,1.865,0.687,1.848,1.734
	c-0.018,1.037-0.711,1.658-1.911,1.669C29.099,17.697,27.431,17.686,25.762,17.686z"/>
<path d="M40.164,17.686c-0.745,0-1.491,0.022-2.235-0.006c-1.026-0.04-1.675-0.702-1.687-1.67c-0.011-0.976,0.618-1.695,1.632-1.723
	c1.56-0.042,3.123-0.043,4.683,0.001c1.013,0.029,1.654,0.759,1.642,1.721c-0.012,0.965-0.659,1.604-1.693,1.674
	c-0.071,0.005-0.142,0.002-0.213,0.002C41.583,17.686,40.873,17.686,40.164,17.686z"/>
<path d="M56.757,91.085c0,4.44,0.002,8.881-0.001,13.322c-0.001,1.553-0.552,2.133-2.11,2.139
	c-4.015,0.017-8.029,0.016-12.043,0.001c-1.6-0.006-2.162-0.583-2.163-2.216c-0.008-8.846-0.007-17.691,0-26.539
	c0.001-1.678,0.581-2.245,2.24-2.247c3.944-0.004,7.887-0.005,11.831,0.001c1.699,0.002,2.246,0.545,2.247,2.217
	C56.759,82.203,56.757,86.643,56.757,91.085z M43.952,79.019c0,8.059,0,16.055,0,24.037c3.173,0,6.243,0,9.324,0
	c0-8.057,0-16.03,0-24.037C50.136,79.019,47.063,79.019,43.952,79.019z"/>
<path d="M79.978,91.038c0-4.44-0.003-8.882,0.001-13.322c0.002-1.622,0.544-2.167,2.174-2.17c3.979-0.006,7.958-0.006,11.937,0
	c1.609,0.003,2.174,0.569,2.175,2.185c0.004,8.882,0.004,17.764,0,26.646c-0.001,1.606-0.558,2.168-2.188,2.173
	c-3.979,0.013-7.957,0.014-11.937-0.001c-1.644-0.006-2.159-0.545-2.16-2.187C79.976,99.92,79.978,95.479,79.978,91.038z
	 M92.785,103.083c0-8.059,0-16.037,0-24.061c-3.14,0-6.211,0-9.326,0c0,8.045,0,16.024,0,24.061
	C86.571,103.083,89.619,103.083,92.785,103.083z"/>
</svg>
